<svg xmlns="http://www.w3.org/2000/svg" xmlns:xlink="http://www.w3.org/1999/xlink" width="46" height="46" viewBox="0 0 46 46"><defs><style>.a{fill:none;}.b{fill:#cbd5e0;}.c{clip-path:url(#a);}.d{fill:#f8bc9e;}.e{fill:#eb996e;}.f{fill:#6745ff;}.g{fill:#030424;}.h{fill:#a7b5f2;}.i{fill:#4931be;}.j{fill:#ff9e77;}.k{fill:#b26347;}.l{fill:#7156fd;}.m{opacity:0.3;}.n{fill:#98a8e2;}.o{fill:#8699ce;}</style><clipPath id="a"><circle class="a" cx="23" cy="23" r="23" transform="translate(0 0)"/></clipPath></defs><g transform="translate(12427 15774)"><circle class="b" cx="23" cy="23" r="23" transform="translate(-12427 -15774)"/><g transform="translate(-12427 -15774)"><circle class="a" cx="23" cy="23" r="23" transform="translate(0)"/><g transform="translate(0 0)"><g class="c" transform="translate(0 0)"><g transform="translate(-10.218 6.007)"><g transform="translate(71.69 22.073)"><g transform="translate(0)"><path class="d" d="M-299.441,7631.4c-.391,1.113-.754,2.031-.754,2.031s-2.945,6.761-3.878,9.4l-6.313-2.571.318-.512s-1.421-2.382-.979-3.652a7.4,7.4,0,0,0,.307-2.082,10.627,10.627,0,0,0-.24-2.786c-.262-.87,1.215-1.519,2.085.033a5.149,5.149,0,0,1,.481,2.573,1.546,1.546,0,0,0,.406,1.023c.821.846,1.184-.174,1.184-.174l2.6-4.212s.253-.625.637-1.431c.708-1.479,1.858-3.556,2.7-3.4a.968.968,0,0,1,1.4-.389c.488.279.445,1.239.432,1.423h0c0,.021,0,.032,0,.032l.015,0c.072.024.36.158.543.954A12.652,12.652,0,0,1-299.441,7631.4Z" transform="translate(311.131 -7625.095)"/><g transform="translate(10.32 1.57)"><path class="e" d="M-241.921,7639.813a18.994,18.994,0,0,0,.95-2.067,18.889,18.889,0,0,0,.826-2.119,19.324,19.324,0,0,0-.95,2.068A19.216,19.216,0,0,0-241.921,7639.813Z" transform="translate(241.923 -7635.626)"/></g><g transform="translate(7.735 0.555)"><path class="e" d="M-259.26,7634.376a6.205,6.205,0,0,0,.455-.771c.266-.485.622-1.161.982-1.925a21.418,21.418,0,0,0,.829-2c.089-.263.157-.477.2-.627a.833.833,0,0,0,.049-.235,8.42,8.42,0,0,0-.334.829c-.2.512-.5,1.211-.861,1.973s-.7,1.443-.944,1.938A5.708,5.708,0,0,0-259.26,7634.376Z" transform="translate(259.261 -7628.821)"/></g><g transform="translate(8.526 3.684)"><path class="e" d="M-253.951,7654.845a2.845,2.845,0,0,0,.188-.427l.465-1.184.005-.013,0-.016a15.5,15.5,0,0,1-.3-1.673,3.67,3.67,0,0,1-.011-.977.746.746,0,0,1,.68-.613.431.431,0,0,1,.2.017.075.075,0,0,0,.01.03l.02.059c.014.036.026.076.039.115.05.157.1.314.14.469.086.312.169.612.249.9l.419,1.567,0-.016-.069,1.434c0,.155-.008.286-.011.393a.47.47,0,0,0,.006.137.468.468,0,0,0,.024-.136l.039-.391c.029-.363.067-.846.114-1.43v-.009l0-.007c-.112-.46-.245-.992-.4-1.575l-.244-.9c-.044-.155-.088-.314-.139-.474-.013-.04-.025-.08-.04-.122l-.022-.062a.48.48,0,0,0-.046-.08.291.291,0,0,0-.159-.052.941.941,0,0,0-.139,0,.907.907,0,0,0-.53.229.893.893,0,0,0-.268.492,3.68,3.68,0,0,0,.016,1.018,13.851,13.851,0,0,0,.329,1.684l0-.029-.424,1.2A3.057,3.057,0,0,0-253.951,7654.845Z" transform="translate(253.952 -7649.803)"/></g><g transform="translate(4.405 9.467)"><g transform="translate(0.473)"><path class="e" d="M-278.416,7690.722a2.7,2.7,0,0,0,.365-.458,5.642,5.642,0,0,1,.935-1.029,2.5,2.5,0,0,1,1.243-.554,4.73,4.73,0,0,1,.576,0,1.031,1.031,0,0,0-.585-.093,2.363,2.363,0,0,0-1.319.542,4.615,4.615,0,0,0-.929,1.081A2.31,2.31,0,0,0-278.416,7690.722Z" transform="translate(278.417 -7688.584)"/></g><g transform="translate(0 0.945)"><path class="e" d="M-281.587,7694.933c-.01.036.2.125.45.261s.437.266.463.235-.135-.212-.4-.356S-281.579,7694.9-281.587,7694.933Z" transform="translate(281.587 -7694.919)"/></g></g></g><g transform="translate(0 3.955)"><path class="f" d="M-299.441,7653.969c-.391,1.114-.754,2.031-.754,2.031s-2.945,6.763-3.878,9.4l-6.313-2.569.318-.513s-1.421-2.383-.979-3.653a7.381,7.381,0,0,0,.307-2.081,2.689,2.689,0,0,0,2.327-.179,1.55,1.55,0,0,0,.406,1.022c.821.847,1.184-.175,1.184-.175l2.6-4.21s.253-.628.637-1.433a1.027,1.027,0,0,0,.977.49l.082.112.106.146.269,1.408h0a.894.894,0,0,0,1.3-.4,1.492,1.492,0,0,0,.088-.153h0a.012.012,0,0,0,0,.007.45.45,0,0,0,.027.054,1.306,1.306,0,0,0,1.282.684Z" transform="translate(311.131 -7651.614)"/></g><g transform="translate(4.405 4.445)"><g transform="translate(4.121 0.258)"><path class="g" d="M-253.3,7659.017l0,.014-.006.015c-.19.483-.346.881-.465,1.183a3.077,3.077,0,0,1-.188.428,2.9,2.9,0,0,1,.137-.445c.106-.3.249-.7.419-1.185a13.757,13.757,0,0,1-.325-1.669,4.892,4.892,0,0,1-.044-.724l.269,1.407,0,0C-253.434,7658.4-253.364,7658.723-253.3,7659.017Z" transform="translate(253.952 -7656.633)"/></g><g transform="translate(5.882 1.116)"><path class="g" d="M-241.7,7663.79v.005c-.048.586-.086,1.069-.115,1.432-.015.155-.027.283-.038.391a.4.4,0,0,1-.024.135.523.523,0,0,1-.005-.137c0-.107.007-.238.011-.394.017-.359.04-.843.068-1.425-.1-.378-.214-.8-.337-1.258a1.6,1.6,0,0,0,.088-.154h0a.015.015,0,0,0,0,.008.492.492,0,0,0,.027.054c0,.005-.005.011-.009.017.123.479.234.925.329,1.314Z" transform="translate(242.144 -7662.386)"/></g><g transform="translate(3.329)"><path class="g" d="M-258.392,7655.017c-.152.292-.3.557-.417.78a6.382,6.382,0,0,1-.456.773,5.713,5.713,0,0,1,.371-.817c.119-.242.262-.53.419-.851Z" transform="translate(259.266 -7654.902)"/></g><g transform="translate(0 5.022)"><path class="g" d="M-278.578,7688.587a2.363,2.363,0,0,0-1.319.542,4.223,4.223,0,0,0-.787.871,1.117,1.117,0,0,0-.388-.317c-.262-.144-.506-.178-.514-.142s.2.127.45.26c.2.108.358.212.427.236-.042.061-.081.119-.117.173a2.317,2.317,0,0,0-.287.512,2.708,2.708,0,0,0,.365-.458,5.633,5.633,0,0,1,.935-1.029,2.5,2.5,0,0,1,1.243-.554,4.733,4.733,0,0,1,.576,0A1.032,1.032,0,0,0-278.578,7688.587Z" transform="translate(281.587 -7688.584)"/></g></g></g><g transform="translate(48.179 40.106)"><path class="f" d="M-446.476,7764.584s-2.02,2.509-3.782,4.553-2.73,1.681-4.122,1.318-4.944-1.254-6.646-4.134-1.589-3.45-3.265-5.8-4.075-7.431-3.857-7.854-1.718.639.217-2.13,1.168-5.186,4.789-4.342,5.772,1.249,5.772,1.249a34.4,34.4,0,0,1,2.388,3.727,21.594,21.594,0,0,0,4.355,6.134,32.119,32.119,0,0,0,3.628,2.336Z" transform="translate(468.799 -7746.027)"/></g><g transform="translate(58.349 41.296)"><path class="h" d="M-395.383,7760.712a5.6,5.6,0,0,1-5.215-5.593,5.676,5.676,0,0,1,.11-1.11c.748.152,1.149.229,1.149.229a34.379,34.379,0,0,1,2.389,3.729A21.748,21.748,0,0,0-395.383,7760.712Z" transform="translate(400.598 -7754.009)"/></g><g transform="translate(11.731 35.985)"><path class="f" d="M-686.789,7753.2l-13.218,5.61a69.379,69.379,0,0,1-4.187-13.58,32.173,32.173,0,0,0-.81-3.53,17.662,17.662,0,0,0-1.087-2.59c-.285-.568-.589-1.13-.9-1.687-.384-.7-.776-1.395-1.141-2.1a12.353,12.353,0,0,1-1.738-6.793l-3.355-8.073,14.762-2.066Z" transform="translate(713.223 -7718.388)"/></g><g transform="translate(17.965 51.279)"><path class="i" d="M-669.846,7820.952a35.185,35.185,0,0,0-.673,5.424c-.285-.568-.589-1.129-.9-1.686Z" transform="translate(671.417 -7820.952)"/></g><g transform="translate(7.895 83.968)"><path class="j" d="M-738.952,8047.031l.447.484a14.777,14.777,0,0,0,5.654-1,1.674,1.674,0,0,0,.839-1.4l-.04-.984s1.071-.523.971-1.329l-.346-.932a2.427,2.427,0,0,0-1.228-1.344l-.75-.358-3.75,2.466Z" transform="translate(738.952 -8040.167)"/></g><g transform="translate(4.821 81.992)"><path class="f" d="M-759.567,8028.6a32.721,32.721,0,0,0,1,4.524c.46,1.1,1.183,2.861,2.52,3.122a8.1,8.1,0,0,0,2.168-.367,4.057,4.057,0,0,0,2.526-2.216,2.258,2.258,0,0,0,.19-.682s-.252-1.55-.277-1.764h0a.239.239,0,0,0,.333-.2,11.241,11.241,0,0,1,.306-1.9.585.585,0,0,0-.169-.591,7.726,7.726,0,0,0-2.132-1.548A10.994,10.994,0,0,0-759.567,8028.6Z" transform="translate(759.567 -8026.918)"/></g><g transform="translate(1.589 38.604)"><path class="f" d="M-762.422,7742.771a43.579,43.579,0,0,0-2.14,7.872c-.165.87-1.471,4.95-1.74,5.791a22.41,22.41,0,0,1-.949,2.347q-.889,1.979-1.776,3.956c-.293.653-.587,1.313-.871,1.979-.3.7-.585,1.413-.84,2.131-.024.063-.046.123-.068.186l1.07.922-9.984-1.8a28.762,28.762,0,0,1-1.438-5.654,11.453,11.453,0,0,1-.016-2.54c.014-.143.035-.287.057-.432a35.376,35.376,0,0,1,1.326-4.52c.108-.359.2-.719.285-1.082.024-.107.046-.218.066-.326.016-.082.031-.166.044-.248.026-.148.05-.3.07-.448.015-.091.025-.186.036-.277,0-.007,0-.018,0-.026.015-.1.026-.211.037-.316s.025-.239.036-.357c.022-.214.041-.427.059-.638.013-.14.024-.278.037-.418l.033-.383c.011-.129.022-.257.035-.385s.024-.257.038-.385.027-.255.044-.382c.027-.231.06-.465.1-.693l.006-.027c.027-.159.056-.319.088-.477v0c.022-.107.044-.212.069-.317a17.4,17.4,0,0,1,1.07-2.918c.21-.472.441-.956.683-1.444s.5-.979.754-1.46c.47-.874.955-1.715,1.407-2.455.377-.612.73-1.154,1.035-1.583l1.381,1.3,1.547.856,7.847,4.345Z" transform="translate(781.237 -7735.956)"/></g><g transform="translate(0 60.399)"><path class="g" d="M-779.5,7897.293a6.107,6.107,0,0,0-.219,1.164,23.9,23.9,0,0,0,.066,5.537.449.449,0,0,1-.2.471,11.036,11.036,0,0,1-7.115,1.438.452.452,0,0,1-.388-.376,79.564,79.564,0,0,0-2.642-10.75c-2.059-6.451-1.844-10.179-1.844-10.179a4.162,4.162,0,0,1,.25-2.153.528.528,0,0,1,.617-.317c1.833.44,9.206,2.506,12.735,7.953a1,1,0,0,1,.14.715,6.679,6.679,0,0,1-.393,1.39A40.668,40.668,0,0,1-779.5,7897.293Z" transform="translate(791.894 -7882.113)"/></g><g transform="translate(3.035 45.548)"><path class="h" d="M-764.988,7788.071a5.18,5.18,0,0,1-5.594,4.727,5.008,5.008,0,0,1-.962-.175c.109-.356.205-.719.286-1.082.377-1.734.349-3.536.637-5.284.029-.169.059-.336.093-.5.022-.107.044-.212.069-.317a17.375,17.375,0,0,1,1.069-2.92A5.176,5.176,0,0,1-764.988,7788.071Z" transform="translate(771.544 -7782.517)"/></g><g transform="translate(5.342 45.909)"><path class="g" d="M-754.937,7784.942a4.944,4.944,0,0,1,2.558,2.09,5.132,5.132,0,0,1,.636,1.575,5.292,5.292,0,0,1,.086,1.7,5.277,5.277,0,0,1-.468,1.642,5.166,5.166,0,0,1-.977,1.392,5.079,5.079,0,0,1-1.367.987,4.867,4.867,0,0,1-1.6.469,5.476,5.476,0,0,0,2.758-1.653,5.167,5.167,0,0,0,1.289-2.878,5.183,5.183,0,0,0-.6-3.093A5.46,5.46,0,0,0-754.937,7784.942Z" transform="translate(756.067 -7784.942)"/></g><g transform="translate(3.957 48.784)"><path class="g" d="M-762.266,7806.778a1.168,1.168,0,0,0-.849-1.1,2.282,2.282,0,0,0-.611-.863,2.429,2.429,0,0,0-1.145-.558,2.367,2.367,0,0,0-.393-.041q-.047.238-.088.478c0,.009,0,.017-.005.027a1.55,1.55,0,0,1,.391.032,1.793,1.793,0,0,1,1.4,1.2l.031.1h0a.125.125,0,0,0,.084.063l.114.019a.654.654,0,0,1,.54.554.542.542,0,0,0-.375.416.573.573,0,0,0,.47.654.576.576,0,0,0,.679-.436A.554.554,0,0,0-762.266,7806.778Zm-.368.61a.173.173,0,0,1-.143-.2.17.17,0,0,1,.2-.127.172.172,0,0,1,.146.2A.177.177,0,0,1-762.634,7807.389Z" transform="translate(765.358 -7804.222)"/></g><g transform="translate(0.047 62.885)"><path class="i" d="M-791.58,7898.784a9,9,0,0,1,1.963.259,14.8,14.8,0,0,1,1.9.585,19.985,19.985,0,0,1,3.539,1.808l.828.551c.269.194.533.4.8.594l.4.3c.132.1.254.213.382.318l.753.646c.5.439.955.914,1.43,1.375.443.49.888.977,1.319,1.476-.491-.442-.96-.9-1.443-1.348l-.744-.644-.37-.325-.184-.164-.193-.151c-.521-.4-1.009-.838-1.552-1.205l-.793-.578-.821-.535a24.369,24.369,0,0,0-3.448-1.853,18.432,18.432,0,0,0-1.839-.677A10.46,10.46,0,0,0-791.58,7898.784Z" transform="translate(791.58 -7898.784)"/></g><g transform="translate(4.225 80.544)"><path class="i" d="M-763.559,8018.777q1.032.047,2.049.014a16.974,16.974,0,0,0,2.02-.182,10.85,10.85,0,0,0,1.958-.476,8.911,8.911,0,0,0,.929-.4,8.273,8.273,0,0,0,.877-.524,4.862,4.862,0,0,1-.785.679,6.336,6.336,0,0,1-.915.509,8.165,8.165,0,0,1-.986.354,10.2,10.2,0,0,1-1.022.218,10.657,10.657,0,0,1-2.078.1A9.513,9.513,0,0,1-763.559,8018.777Z" transform="translate(763.559 -8017.211)"/></g><g transform="translate(9.727 55.902)"><path class="g" d="M-726.666,7851.953c.209.517.429,1.019.663,1.513s.489.975.769,1.441l.209.35.226.337c.07.116.155.223.234.334s.155.222.243.323a13.367,13.367,0,0,0,1.1,1.229,5.607,5.607,0,0,1-1.312-1.042,7.5,7.5,0,0,1-1.01-1.347,9.107,9.107,0,0,1-.717-1.518A7.148,7.148,0,0,1-726.666,7851.953Z" transform="translate(726.666 -7851.953)"/></g><g transform="translate(13.295 86.488)"><path class="k" d="M-701.225,8058.8c-.055-.245-.1-.491-.129-.736-.018-.124-.03-.247-.045-.371-.008-.06-.009-.133-.02-.169a.252.252,0,0,0-.07-.115.6.6,0,0,0-.134-.08,1.156,1.156,0,0,0-.16-.063.889.889,0,0,0-.335-.045,1.014,1.014,0,0,0-.618.324,1.08,1.08,0,0,1,.24-.3.8.8,0,0,1,.359-.168.887.887,0,0,1,.4.019,1.143,1.143,0,0,1,.188.067c.03.014.06.029.089.045a.413.413,0,0,1,.094.066.42.42,0,0,1,.117.2,1.246,1.246,0,0,1,.02.2c0,.125.013.249.014.373Q-701.2,8058.428-701.225,8058.8Z" transform="translate(702.736 -8057.068)"/></g><g transform="translate(13.226 86.215)"><path class="k" d="M-703.195,8055.236c.081.087.133.171.193.247a.789.789,0,0,0,.212.2.249.249,0,0,1-.179,0,.389.389,0,0,1-.141-.112A.422.422,0,0,1-703.195,8055.236Z" transform="translate(703.201 -8055.236)"/></g><g transform="translate(9.248 84.381)"><path class="i" d="M-729.861,8042.938c.111.485.233.956.371,1.421s.291.923.469,1.371a13.306,13.306,0,0,0,.586,1.322c.21.438.466.85.711,1.282a5.676,5.676,0,0,1-.958-1.139c-.146-.2-.252-.433-.377-.647-.1-.226-.214-.451-.3-.687a7.736,7.736,0,0,1-.405-1.437A5.807,5.807,0,0,1-729.861,8042.938Z" transform="translate(729.876 -8042.938)"/></g><g transform="translate(11.796 90.412)"><path class="k" d="M-712.787,8083.5c.166,0,.33-.015.493-.025l.489-.038c.327-.022.653-.053.987-.051a4.025,4.025,0,0,1-.977.187,3.862,3.862,0,0,1-.5.01A1.909,1.909,0,0,1-712.787,8083.5Z" transform="translate(712.787 -8083.382)"/></g><g transform="translate(36.195 109.173)"><path class="g" d="M-527.867,8233.6a31.948,31.948,0,0,1-18.269.176l-.291-2.53s1.246-7.618-1.454-12.327l-1.282-2.113v-4.881s1.419-3.187,9.143-2.668,7.86,2.006,7.86,2.006L-532.6,8215l-.944,2.459a22.563,22.563,0,0,0,.117,2.384,22.573,22.573,0,0,0,.9,4.57,12.776,12.776,0,0,0,1.65,3.477S-527.937,8229.029-527.867,8233.6Z" transform="translate(549.163 -8209.2)"/></g><g transform="translate(12.461 108.118)"><path class="g" d="M-690.23,8206.308l-.565,4.24-1.613,1.79a9.131,9.131,0,0,0-1.248,2.942,14.091,14.091,0,0,0-.249,4.694c.048.434.1.687.1.687l.7,3.014a2.982,2.982,0,0,1,.079.685v3c-7.712,4.487-15.3-.874-15.3-.874v-3.761l1.339-2.124a7.723,7.723,0,0,0,.8-2.213,15.823,15.823,0,0,0,.13-4.909,17.727,17.727,0,0,0-.318-1.928l-1.068-3.71.832-5.238a9.139,9.139,0,0,1,3.96-.437c2.3.229,10.33,2.807,10.33,2.807S-691.452,8204.99-690.23,8206.308Z" transform="translate(708.328 -8202.122)"/></g><g transform="translate(15.141 71.088)"><path class="f" d="M-653.987,7989.71l-.563,1.774.256,3.383c-.313.133-.635.252-.96.358-5.312,1.74-12.013.085-12.013.085l.024-2.3-.285-1.073a1.712,1.712,0,0,1-.093-.83l.282-2.051v-.006a18.642,18.642,0,0,1-1.381-2.691,1.835,1.835,0,0,1-.117-1.123,14.528,14.528,0,0,1,.527-1.826,20.133,20.133,0,0,0-.06-5.212c-.216-2.429-.523-4.756-.523-4.756l-2.383,6.078-4.182,9.258a15.159,15.159,0,0,1,.207,3.039,1.5,1.5,0,0,1-.349.945l-.927,1.1-.232,1.757q-.53.1-1.043.162a16.439,16.439,0,0,1-12.55-3.639l.232-1.46v-1.5a2.177,2.177,0,0,1,.157-.819,27.978,27.978,0,0,1,1.418-2.826,65.214,65.214,0,0,1,1.679-7.767c.631-2.781,1.937-11.705,1.937-11.705.154-2.677,1.423-12.279,1.423-12.279l28.563,5.451.251.046s.048,4.863.145,7.491.049,12.692.049,12.692l-.1,7.926.609,1.874A.711.711,0,0,1-653.987,7989.71Z" transform="translate(690.356 -7953.793)"/></g><g transform="translate(49.814 76.539)"><path class="l" d="M-456.138,8020.815l-.563,1.774.256,3.381c-.313.134-.635.254-.96.359l-.284-3.74.563-1.774a.714.714,0,0,0,0-.437l-.609-1.873.1-7.926s.049-10.066-.049-12.693-.145-7.489-.145-7.489l.737-.047.251.047s.048,4.862.145,7.489.049,12.693.049,12.693l-.1,7.926.609,1.873A.715.715,0,0,1-456.138,8020.815Z" transform="translate(457.834 -7990.349)"/></g><g transform="translate(41.447 23.033)"><path class="g" d="M-511.212,7632.752h0l-.686.391-1.61.749-.437-.091.254-2.271A19.2,19.2,0,0,1-511.212,7632.752Z" transform="translate(513.945 -7631.531)"/></g><g transform="translate(22.249 22.027)"><path class="g" d="M-640.88,7625.718l-.424.615-1.383-.737h0a8.72,8.72,0,0,1,1.46-.81Z" transform="translate(642.687 -7624.786)"/></g><g transform="translate(17.794 40.51)"><path class="i" d="M-665.992,7766.3l-.986-6.69-1.085-5.373-1.185-4.233-3.318-1.271S-668.671,7752.733-665.992,7766.3Z" transform="translate(672.565 -7748.735)"/></g><g transform="translate(5.872 38.401)"><path class="i" d="M-731.229,7738.188a29.31,29.31,0,0,1-7.313,3.115,22.5,22.5,0,0,1-6.49.788,18.727,18.727,0,0,1-7.482-1.8c.241-.488.5-.979.754-1.46.47-.875.955-1.716,1.407-2.455.863-.791,2.44-.027,4.215,1.413-.086-.283-.17-.563-.25-.834-.07-.235-.137-.466-.2-.691a1.309,1.309,0,0,1,1.271-1.675,1.279,1.279,0,0,1,.913.392,1.318,1.318,0,0,0,.763.376l11.945,1.508Z" transform="translate(752.514 -7734.594)"/></g><g transform="translate(9.289 31.309)"><path d="M-727.7,7688.983l-1.89.061a2.493,2.493,0,0,1,.905-2.013l2.06.076Z" transform="translate(729.6 -7687.031)"/></g><g transform="translate(53.715 33.532)"><path d="M-429.437,7703.979a8.675,8.675,0,0,0-.809-2.037l-1.429.493.66.933Z" transform="translate(431.675 -7701.941)"/></g><g transform="translate(48.225 33.622)"><path class="g" d="M-462.21,7702.726a36.319,36.319,0,0,1,8.146,8.695.747.747,0,0,1-.238,1.066c-1.878,1.1-7.541,3.464-14.186-2.711l5.005-7.23Z" transform="translate(468.488 -7702.546)"/></g><g transform="translate(51.715 41.795)"><path class="i" d="M-445.087,7757.352a21.509,21.509,0,0,0,2.619.886c.445.114.89.219,1.341.3a11.793,11.793,0,0,0,1.356.177,9.321,9.321,0,0,0,2.709-.155,7.925,7.925,0,0,0,1.3-.416,8.035,8.035,0,0,0,1.208-.666,5.749,5.749,0,0,1-1.128.826,6.373,6.373,0,0,1-1.307.532,7.712,7.712,0,0,1-1.394.246,9.962,9.962,0,0,1-1.413,0,11.967,11.967,0,0,1-2.749-.567A11.919,11.919,0,0,1-445.087,7757.352Z" transform="translate(445.087 -7757.352)"/></g><g transform="translate(1.793 29.908)"><path class="g" d="M-779.7,7687.6a64.2,64.2,0,0,1,12.209-9.965l10.655,5.122,1.119,5.748s-10.151,8.6-23.853.069A.637.637,0,0,1-779.7,7687.6Z" transform="translate(779.871 -7677.638)"/></g><g transform="translate(53.715 33.532)"><path class="g" d="M-429.437,7703.979a8.675,8.675,0,0,0-.809-2.037l-1.429.493.66.933Z" transform="translate(431.675 -7701.941)"/></g><g transform="translate(10.202 21.525)"><path class="f" d="M-681.289,7643.338l1.337,16.121a29.557,29.557,0,0,1-1.041,10.755,8.406,8.406,0,0,1-3.324,4.743l-8.844,1.146a12.286,12.286,0,0,1-11.7-5.182,21.046,21.046,0,0,1-2.729-5.195,28.792,28.792,0,0,1-1.592-6.682,96.44,96.44,0,0,0-3.146-16.667,12.916,12.916,0,0,0-3.558-5.7,47.589,47.589,0,0,0-7.591-5.474c4.015-1.706,7.028-2.855,9.036-3.581s3.011-1.021,3.011-1.021v-3.873a7.671,7.671,0,0,1,3.252-1.3c1.648-.142,15.289,1.16,15.289,1.16a18.554,18.554,0,0,1,2.892,1.279c.165.089.331.184.5.282v3.354s.505.24,1.357.665c1.185.587,3.044,1.535,5.14,2.684,1.423.781,2.956,1.655,4.465,2.572C-678.625,7633.466-681.245,7634.706-681.289,7643.338Z" transform="translate(723.478 -7621.417)"/></g><g transform="translate(42.814 23.972)"><path class="l" d="M-503.415,7638.116v3.352a3.072,3.072,0,0,1-1.366,1.165l.121-4.422.748-.38C-503.747,7637.921-503.581,7638.016-503.415,7638.116Z" transform="translate(504.781 -7637.831)"/></g><g transform="translate(41.447 23.033)"><path class="g" d="M-511.212,7632.752h0l-.686.391-1.61.749-.437-.091.254-2.271A19.2,19.2,0,0,1-511.212,7632.752Z" transform="translate(513.945 -7631.531)"/></g><g transform="translate(22.249 22.027)"><path class="g" d="M-640.88,7625.718l-.424.615-1.383-.737h0a8.72,8.72,0,0,1,1.46-.81Z" transform="translate(642.687 -7624.786)"/></g><g transform="translate(22.555)"><g transform="translate(0.885)"><path class="f" d="M-614.476,7483.906l-.077,13.68a1.948,1.948,0,0,1-.558,1.354,1.913,1.913,0,0,1-.593.417l-.06.028-.5.227v2.819s-7.013,4.455-18.437-1.611v-17a3.214,3.214,0,0,1,.086-.739,3.159,3.159,0,0,1,.708-1.382l0,0a.863.863,0,0,1,.069-.081,14.335,14.335,0,0,1,8.863-4.485c.126-.013.254-.024.382-.033a10.627,10.627,0,0,1,9,3.733A4.752,4.752,0,0,1-614.476,7483.906Z" transform="translate(634.702 -7477.069)"/></g><g transform="translate(1.683)"><path class="l" d="M-609.925,7483.906l-.077,13.68a1.954,1.954,0,0,1-1.151,1.771l-.06.028c-.057-3.553-.15-11.057.033-13.444.241-3.167-.964-4.184-.964-4.184-6.472-6.954-14.859-1.758-17.209-.057a.864.864,0,0,1,.069-.081,14.336,14.336,0,0,1,8.863-4.485c.126-.013.254-.024.383-.033a10.627,10.627,0,0,1,9,3.733A4.751,4.751,0,0,1-609.925,7483.906Z" transform="translate(629.353 -7477.069)"/></g><g transform="translate(8.306 7.625)"><path class="j" d="M-572.155,7531.214l-.007,1.3a1.3,1.3,0,0,1-1.422,1.288,5.379,5.379,0,0,1-1.1-.238.292.292,0,0,1-.031-.015,6.5,6.5,0,0,0-2.354-.549,8.614,8.614,0,0,0-3.457.881s-.005,0-.007,0l-.064.028a1.724,1.724,0,0,1-.225.078l-.024.007c-1.17.3-2.891-.566-3.236-.75a.537.537,0,0,1-.112-.079c-1.149-1.044-.851-3.27.061-3.809.09-.046.209-.118.364-.2a.023.023,0,0,1,.009-.006,8.927,8.927,0,0,1,3.7-.9c.227-.018.463-.033.706-.039.322-.009.666-.013,1.034-.009l.176,0h.029c.086,0,.172,0,.26.006.15.006.3.01.461.019a15.106,15.106,0,0,1,3.376.488A2.57,2.57,0,0,1-572.155,7531.214Z" transform="translate(584.94 -7528.202)"/></g><g transform="translate(8.075 11.751)"><path class="i" d="M-586.488,7555.873a10.329,10.329,0,0,0,1.031.795,6.044,6.044,0,0,0,1.121.6,3.928,3.928,0,0,0,.6.191,3.493,3.493,0,0,0,.621.095,4.082,4.082,0,0,0,1.276-.13,2.654,2.654,0,0,1-1.278.377,3.248,3.248,0,0,1-1.334-.239,4.375,4.375,0,0,1-1.15-.7A4.193,4.193,0,0,1-586.488,7555.873Z" transform="translate(586.488 -7555.873)"/></g><g transform="translate(8.141 7.529)"><path class="i" d="M-586.045,7529.614a2.708,2.708,0,0,1,.672-.705,4.9,4.9,0,0,1,.839-.514,7.851,7.851,0,0,1,1.86-.62,11.109,11.109,0,0,1,1.94-.212,12.553,12.553,0,0,1,1.94.1c-.646.045-1.287.082-1.925.143a18.119,18.119,0,0,0-1.892.275,10.491,10.491,0,0,0-1.822.533,6.646,6.646,0,0,0-.853.417A3.442,3.442,0,0,0-586.045,7529.614Z" transform="translate(586.045 -7527.559)"/></g><g transform="translate(15.672 8.733)"><path class="g" d="M-533.43,7540.191a10.876,10.876,0,0,1-.657-1.081c-.2-.368-.386-.743-.566-1.122s-.342-.765-.492-1.157a10.969,10.969,0,0,1-.4-1.2,10.95,10.95,0,0,1,.658,1.081c.2.367.385.744.565,1.123s.342.765.492,1.156A11.037,11.037,0,0,1-533.43,7540.191Z" transform="translate(535.544 -7535.632)"/></g><g class="m" transform="translate(16.689 13.79)"><path class="g" d="M-528.724,7570.229a.8.8,0,0,1,.141-.286,1.061,1.061,0,0,1,.2-.2,1.058,1.058,0,0,1,.25-.139.837.837,0,0,1,.313-.055.792.792,0,0,1-.141.284,1,1,0,0,1-.2.2,1.006,1.006,0,0,1-.251.139A.818.818,0,0,1-528.724,7570.229Z" transform="translate(528.724 -7569.547)"/></g><g transform="translate(12.073 9.242)"><path class="g" d="M-559.676,7539.688a1.453,1.453,0,0,1,.578-.48,1.579,1.579,0,0,1,.758-.157,1.58,1.58,0,0,1,.742.218,1.751,1.751,0,0,1,.307.223,2.376,2.376,0,0,1,.244.284c-.119-.047-.222-.108-.33-.156l-.163-.065-.079-.036-.082-.025c-.055-.017-.108-.036-.161-.051l-.164-.036a.975.975,0,0,0-.163-.028.8.8,0,0,0-.164-.011,2.107,2.107,0,0,0-.66.071A3.883,3.883,0,0,0-559.676,7539.688Z" transform="translate(559.676 -7539.05)"/></g><g transform="translate(12.784 10.157)"><path class="g" d="M-553.638,7545.765a.636.636,0,0,1-.617.637.608.608,0,0,1-.65-.579.637.637,0,0,1,.617-.637A.609.609,0,0,1-553.638,7545.765Z" transform="translate(554.907 -7545.186)"/></g><g transform="translate(0.041 10.288)"><path class="f" d="M-636.829,7546.2c-.094-.038-3.75-1-3.528,2.7s3.887,2.712,3.887,2.605S-636.829,7546.2-636.829,7546.2Z" transform="translate(640.367 -7546.06)"/></g><g transform="translate(0.885 15.157)"><path class="i" d="M-634.706,7579.782v-1.069l.785.592,1.171.182A2.941,2.941,0,0,1-634.706,7579.782Z" transform="translate(634.707 -7578.713)"/></g><g transform="translate(15.672 8.733)"><path class="g" d="M-533.43,7540.191a10.876,10.876,0,0,1-.657-1.081c-.2-.368-.386-.743-.566-1.122s-.342-.765-.492-1.157a10.969,10.969,0,0,1-.4-1.2,10.95,10.95,0,0,1,.658,1.081c.2.367.385.744.565,1.123s.342.765.492,1.156A11.037,11.037,0,0,1-533.43,7540.191Z" transform="translate(535.544 -7535.632)"/></g><g transform="translate(0 12.655)"><path class="i" d="M-640.6,7561.936a10.239,10.239,0,0,0,.3,1.182,3.469,3.469,0,0,0,.542,1.025,2.651,2.651,0,0,0,.885.718,3.971,3.971,0,0,0,1.15.349,2.391,2.391,0,0,1-1.26-.085,1.75,1.75,0,0,1-.3-.13l-.145-.077-.137-.093a2.107,2.107,0,0,1-.255-.21,2.422,2.422,0,0,1-.224-.245,2.82,2.82,0,0,1-.531-1.177A3.584,3.584,0,0,1-640.6,7561.936Z" transform="translate(640.64 -7561.936)"/></g><g transform="translate(16.89 18.84)"><path class="l" d="M-523.607,7604.545l-.183,1.9a1.934,1.934,0,0,1-.593.418l-.061.028-.5.226v.5l-1.122.34-1.311-.5s2.735-1.133,2.9-3.2S-523.607,7604.545-523.607,7604.545Z" transform="translate(527.377 -7603.411)"/></g><g transform="translate(11.766 22.331)"><path class="i" d="M-554.181,7627.037v1.881c-1.041.052-5.083.1-7.557-2.092A17.287,17.287,0,0,0-554.181,7627.037Z" transform="translate(561.737 -7626.826)"/></g><g transform="translate(4.486 16.828)"><path class="g" d="M-610.557,7589.918c.348.327.694.643,1.043.956s.7.622,1.06.919c.179.151.356.3.54.448l.271.224c.092.071.184.146.274.219.364.3.737.583,1.1.9a7.99,7.99,0,0,1-1.266-.662,10.772,10.772,0,0,1-1.154-.844,10.606,10.606,0,0,1-1.026-1A6.367,6.367,0,0,1-610.557,7589.918Z" transform="translate(610.557 -7589.918)"/></g><g transform="translate(1.683)"><path class="l" d="M-609.925,7483.906l-.077,13.68a1.954,1.954,0,0,1-1.151,1.771l-.06.028c-.057-3.553-.15-11.057.033-13.444.241-3.167-.964-4.184-.964-4.184-6.472-6.954-14.859-1.758-17.209-.057a.864.864,0,0,1,.069-.081,14.336,14.336,0,0,1,8.863-4.485c.126-.013.254-.024.383-.033a10.627,10.627,0,0,1,9,3.733A4.751,4.751,0,0,1-609.925,7483.906Z" transform="translate(629.353 -7477.069)"/></g><g transform="translate(8.306 7.625)"><path class="j" d="M-572.155,7531.214l-.007,1.3a1.3,1.3,0,0,1-1.422,1.288,5.379,5.379,0,0,1-1.1-.238.292.292,0,0,1-.031-.015,6.5,6.5,0,0,0-2.354-.549,8.614,8.614,0,0,0-3.457.881s-.005,0-.007,0l-.064.028a1.724,1.724,0,0,1-.225.078l-.024.007c-1.17.3-2.891-.566-3.236-.75a.537.537,0,0,1-.112-.079c-1.149-1.044-.851-3.27.061-3.809.09-.046.209-.118.364-.2a.023.023,0,0,1,.009-.006,8.927,8.927,0,0,1,3.7-.9c.227-.018.463-.033.706-.039.322-.009.666-.013,1.034-.009l.176,0h.029c.086,0,.172,0,.26.006.15.006.3.01.461.019a15.106,15.106,0,0,1,3.376.488A2.57,2.57,0,0,1-572.155,7531.214Z" transform="translate(584.94 -7528.202)"/></g><g transform="translate(8.075 11.751)"><path class="i" d="M-586.488,7555.873a10.329,10.329,0,0,0,1.031.795,6.044,6.044,0,0,0,1.121.6,3.928,3.928,0,0,0,.6.191,3.493,3.493,0,0,0,.621.095,4.082,4.082,0,0,0,1.276-.13,2.654,2.654,0,0,1-1.278.377,3.248,3.248,0,0,1-1.334-.239,4.375,4.375,0,0,1-1.15-.7A4.193,4.193,0,0,1-586.488,7555.873Z" transform="translate(586.488 -7555.873)"/></g><g transform="translate(8.141 7.529)"><path class="i" d="M-586.045,7529.614a2.708,2.708,0,0,1,.672-.705,4.9,4.9,0,0,1,.839-.514,7.851,7.851,0,0,1,1.86-.62,11.109,11.109,0,0,1,1.94-.212,12.553,12.553,0,0,1,1.94.1c-.646.045-1.287.082-1.925.143a18.119,18.119,0,0,0-1.892.275,10.491,10.491,0,0,0-1.822.533,6.646,6.646,0,0,0-.853.417A3.442,3.442,0,0,0-586.045,7529.614Z" transform="translate(586.045 -7527.559)"/></g><g transform="translate(15.672 8.733)"><path class="g" d="M-533.43,7540.191a10.876,10.876,0,0,1-.657-1.081c-.2-.368-.386-.743-.566-1.122s-.342-.765-.492-1.157a10.969,10.969,0,0,1-.4-1.2,10.95,10.95,0,0,1,.658,1.081c.2.367.385.744.565,1.123s.342.765.492,1.156A11.037,11.037,0,0,1-533.43,7540.191Z" transform="translate(535.544 -7535.632)"/></g><g class="m" transform="translate(16.689 13.79)"><path class="g" d="M-528.724,7570.229a.8.8,0,0,1,.141-.286,1.061,1.061,0,0,1,.2-.2,1.058,1.058,0,0,1,.25-.139.837.837,0,0,1,.313-.055.792.792,0,0,1-.141.284,1,1,0,0,1-.2.2,1.006,1.006,0,0,1-.251.139A.818.818,0,0,1-528.724,7570.229Z" transform="translate(528.724 -7569.547)"/></g><g class="m" transform="translate(13.388 15.585)"><path class="g" d="M-550.858,7581.586a4.45,4.45,0,0,0,.842.584,2.184,2.184,0,0,0,.927.254.97.97,0,0,0,.119.006l.119-.01a1.11,1.11,0,0,0,.236-.037c.078-.019.157-.035.236-.059s.151-.065.228-.093c.038-.016.079-.029.115-.047l.109-.063.224-.123c.143-.092.282-.2.436-.288a4.715,4.715,0,0,1-.339.411l-.206.176a1.092,1.092,0,0,1-.223.155,1.866,1.866,0,0,1-1.066.292,1.946,1.946,0,0,1-1.043-.362A2.272,2.272,0,0,1-550.858,7581.586Z" transform="translate(550.858 -7581.586)"/></g><g transform="translate(0.885 15.157)"><path class="i" d="M-634.706,7579.782v-1.069l.785.592,1.171.182A2.941,2.941,0,0,1-634.706,7579.782Z" transform="translate(634.707 -7578.713)"/></g><g transform="translate(15.672 8.733)"><path class="g" d="M-533.43,7540.191a10.876,10.876,0,0,1-.657-1.081c-.2-.368-.386-.743-.566-1.122s-.342-.765-.492-1.157a10.969,10.969,0,0,1-.4-1.2,10.95,10.95,0,0,1,.658,1.081c.2.367.385.744.565,1.123s.342.765.492,1.156A11.037,11.037,0,0,1-533.43,7540.191Z" transform="translate(535.544 -7535.632)"/></g><g transform="translate(0 12.655)"><path class="i" d="M-640.6,7561.936a10.239,10.239,0,0,0,.3,1.182,3.469,3.469,0,0,0,.542,1.025,2.651,2.651,0,0,0,.885.718,3.971,3.971,0,0,0,1.15.349,2.391,2.391,0,0,1-1.26-.085,1.75,1.75,0,0,1-.3-.13l-.145-.077-.137-.093a2.107,2.107,0,0,1-.255-.21,2.422,2.422,0,0,1-.224-.245,2.82,2.82,0,0,1-.531-1.177A3.584,3.584,0,0,1-640.6,7561.936Z" transform="translate(640.64 -7561.936)"/></g><g transform="translate(16.89 18.84)"><path class="l" d="M-523.607,7604.545l-.183,1.9a1.934,1.934,0,0,1-.593.418l-.061.028-.5.226v.5l-1.122.34-1.311-.5s2.735-1.133,2.9-3.2S-523.607,7604.545-523.607,7604.545Z" transform="translate(527.377 -7603.411)"/></g><g transform="translate(11.766 22.331)"><path class="i" d="M-554.181,7627.037v1.881c-1.041.052-5.083.1-7.557-2.092A17.287,17.287,0,0,0-554.181,7627.037Z" transform="translate(561.737 -7626.826)"/></g><g transform="translate(4.486 16.828)"><path class="g" d="M-610.557,7589.918c.348.327.694.643,1.043.956s.7.622,1.06.919c.179.151.356.3.54.448l.271.224c.092.071.184.146.274.219.364.3.737.583,1.1.9a7.99,7.99,0,0,1-1.266-.662,10.772,10.772,0,0,1-1.154-.844,10.606,10.606,0,0,1-1.026-1A6.367,6.367,0,0,1-610.557,7589.918Z" transform="translate(610.557 -7589.918)"/></g><g transform="translate(11.767 10.22)"><path class="g" d="M-561.732,7546.244a1.476,1.476,0,0,1,.578-.479,1.6,1.6,0,0,1,.758-.156,1.577,1.577,0,0,1,.742.217,1.74,1.74,0,0,1,.308.224,2.356,2.356,0,0,1,.244.283c-.119-.046-.222-.106-.331-.154l-.163-.066-.079-.036-.082-.025c-.055-.017-.108-.033-.161-.053l-.164-.035a1.162,1.162,0,0,0-.163-.026.839.839,0,0,0-.164-.013,2.153,2.153,0,0,0-.66.073A4.038,4.038,0,0,0-561.732,7546.244Z" transform="translate(561.732 -7545.608)"/></g><g transform="translate(17.596 7.625)"><path class="g" d="M-520.31,7528.92c-.122.155-.591-.01-1.158-.022-.566-.032-1.047.1-1.156-.067-.048-.08.029-.234.24-.38a1.6,1.6,0,0,1,.943-.245,1.584,1.584,0,0,1,.921.318C-520.321,7528.686-520.256,7528.845-520.31,7528.92Z" transform="translate(522.637 -7528.204)"/></g><g transform="translate(11.218 8.569)"><path class="g" d="M-562.332,7535.519c-.117.159-.747-.119-1.544-.254-.794-.15-1.481-.109-1.535-.3-.023-.091.135-.227.437-.324a2.591,2.591,0,0,1,1.221-.061,2.6,2.6,0,0,1,1.124.482C-562.38,7535.261-562.28,7535.442-562.332,7535.519Z" transform="translate(565.414 -7534.537)"/></g><g transform="translate(17.369 9.327)"><path class="g" d="M-524.164,7540.251a1.479,1.479,0,0,1,.578-.479,1.578,1.578,0,0,1,.758-.156,1.577,1.577,0,0,1,.742.216,1.715,1.715,0,0,1,.307.225,2.21,2.21,0,0,1,.244.283c-.119-.047-.222-.106-.33-.155l-.163-.066-.079-.035-.082-.027c-.055-.016-.108-.034-.161-.054l-.164-.034a1.154,1.154,0,0,0-.163-.026.924.924,0,0,0-.164-.013,2.139,2.139,0,0,0-.66.073A3.992,3.992,0,0,0-524.164,7540.251Z" transform="translate(524.164 -7539.615)"/></g><g transform="translate(17.995 10.052)"><path class="g" d="M-518.7,7545.061a.636.636,0,0,1-.618.637.608.608,0,0,1-.65-.58.635.635,0,0,1,.617-.635A.607.607,0,0,1-518.7,7545.061Z" transform="translate(519.964 -7544.482)"/></g></g><g transform="translate(23.44 27.708)"><path class="i" d="M-634.7,7662.884a19.2,19.2,0,0,0,2.359,1.043,25.183,25.183,0,0,0,2.452.772,24.22,24.22,0,0,0,5.065.77,23.4,23.4,0,0,0,5.109-.342,26.214,26.214,0,0,0,4.938-1.447,20.741,20.741,0,0,1-4.882,1.728c-.427.077-.85.176-1.282.226-.215.028-.43.062-.645.086l-.649.063a20.881,20.881,0,0,1-2.6.049,23.256,23.256,0,0,1-2.59-.271,22.233,22.233,0,0,1-2.535-.586A18.749,18.749,0,0,1-634.7,7662.884Z" transform="translate(634.702 -7662.884)"/></g><g transform="translate(22.249 22.836)"><path class="g" d="M-642.692,7630.213q1.273.67,2.6,1.207t2.691.983a28.744,28.744,0,0,0,5.573,1.216,21.077,21.077,0,0,0,2.846.137,18.1,18.1,0,0,0,2.836-.257,17.076,17.076,0,0,0,5.38-1.867l-.614.375-.31.184-.321.164c-.215.107-.427.222-.645.323l-.664.285a15.234,15.234,0,0,1-2.774.818,18.893,18.893,0,0,1-5.773.2,25.929,25.929,0,0,1-2.851-.5,27.347,27.347,0,0,1-2.772-.813A26.435,26.435,0,0,1-642.692,7630.213Z" transform="translate(642.692 -7630.213)"/></g><g transform="translate(10.202 30.303)"><path class="l" d="M-693.16,7726.192c-14.409,1.384-16.022-17.059-16.022-17.059a96.314,96.314,0,0,0-3.146-16.666,12.907,12.907,0,0,0-3.558-5.7,47.715,47.715,0,0,0-7.591-5.474q1.27-.538,2.405-1.007a47.226,47.226,0,0,1,6.615,4.936,15.041,15.041,0,0,1,4.14,6.628,98.571,98.571,0,0,1,3.225,17.037l.007.065c.007.083.845,8.743,5.919,12.951a10.109,10.109,0,0,0,7.805,2.2Z" transform="translate(723.478 -7680.286)"/><g transform="translate(37.482 2.08)"><path class="l" d="M-467.412,7705.3l1.337,16.121a29.559,29.559,0,0,1-1.041,10.754,8.409,8.409,0,0,1-3.324,4.744l-1.68-1.459a5.755,5.755,0,0,0,2.984-3.878,27.321,27.321,0,0,0,.964-9.986l-1.345-16.213v-.092c.035-6.883,1.679-9.817,2.921-11.053.642.374,1.29.758,1.934,1.149C-464.748,7695.424-467.368,7696.664-467.412,7705.3Z" transform="translate(472.119 -7694.234)"/></g></g><g transform="translate(21.399 28.273)"><path class="i" d="M-619.112,7669.358c-.726,2.568-1.789,5.992-3.241,9.87a.581.581,0,0,1-.534.371c-.8,2.117-1.725,4.373-2.775,6.695a91.667,91.667,0,0,1-5.777,10.893.483.483,0,0,1,.06.591q-.458.719-.922,1.411a.476.476,0,0,1-.564.183q-1.158,1.708-2.358,3.264a50.163,50.163,0,0,1-5.259,5.845l.066.135a.312.312,0,0,1-.068.365l-.488.447a36.191,36.191,0,0,1-6.56,4.744.783.783,0,0,1-.375.1.771.771,0,0,1-.484-.171c.313-2.51.589-4.613.589-4.613l.49-2.185a33.81,33.81,0,0,0,3.611-3.071c.159-.156.318-.314.476-.471a.307.307,0,0,1,.472.045,51.468,51.468,0,0,0,5.842-7.254.479.479,0,0,1-.049-.592c.285-.431.565-.86.841-1.3a.475.475,0,0,1,.562-.2,97.5,97.5,0,0,0,8.157-16.927.577.577,0,0,1-.159-.633c1.617-4.354,2.7-8.019,3.276-10.146a.523.523,0,0,1,.031-.087C-623.067,7667.261-621.209,7668.208-619.112,7669.358Z" transform="translate(648.391 -7666.671)"/></g><g transform="translate(28.765 46.51)"><path class="g" d="M-599,7788.974q.961.973,1.992,1.863t2.1,1.729c.719.553,1.448,1.091,2.2,1.6s1.507,1,2.29,1.461a36.642,36.642,0,0,0,4.853,2.43c.416.181.845.326,1.267.493.429.144.854.306,1.289.434.861.29,1.746.5,2.63.713a25.087,25.087,0,0,1-5.29-1.374,31.2,31.2,0,0,1-4.935-2.381,36.262,36.262,0,0,1-4.48-3.154A30.614,30.614,0,0,1-599,7788.974Z" transform="translate(598.995 -7788.974)"/></g><g transform="translate(21.586 70.058)"><path class="g" d="M-646.6,7946.886s17.935,7.565,29.731,2.2c0,0,.249,4.313-1.12,6.18,0,0-15.093,5.348-29.15-3.359Z" transform="translate(647.139 -7946.886)"/></g><g transform="translate(20.565 27.346)"><g transform="translate(0.364 0.366)"><path class="h" d="M-627.153,7663.208c-1.978,7.258-9.3,30.775-23.411,40.925a.4.4,0,0,0-.165.268l-.806,5.387a.408.408,0,0,0,.6.417,41.917,41.917,0,0,0,12.487-11.216,81.815,81.815,0,0,0,9.56-16.341,124.626,124.626,0,0,0,6.248-17.214.408.408,0,0,0-.2-.469l-3.73-2.008A.407.407,0,0,0-627.153,7663.208Z" transform="translate(651.539 -7662.907)"/></g><g transform="translate(11.64 28.247)"><path class="n" d="M-575.718,7852.063l3.861,2.7a.483.483,0,0,0,.674-.125q.464-.7.922-1.413a.481.481,0,0,0-.141-.658l-3.928-2.6a.479.479,0,0,0-.671.144q-.413.655-.841,1.3A.48.48,0,0,0-575.718,7852.063Z" transform="translate(575.922 -7849.881)"/></g><g transform="translate(0 37.479)"><path class="n" d="M-652.853,7915.609a.774.774,0,0,0-.315.513l-.8,5.367a.8.8,0,0,0,.077.5.782.782,0,0,0,.686.413.761.761,0,0,0,.376-.1,36.6,36.6,0,0,0,7.048-5.191.31.31,0,0,0,.068-.362l-2.315-4.776a.307.307,0,0,0-.5-.081A34.638,34.638,0,0,1-652.853,7915.609Z" transform="translate(653.981 -7911.797)"/></g><g transform="translate(21.084)"><path class="n" d="M-504.434,7662.555l-3.73-2.008a.767.767,0,0,0-.367-.093.774.774,0,0,0-.746.569c-.58,2.129-1.66,5.794-3.277,10.147a.576.576,0,0,0,.3.724l4.128,1.917a.574.574,0,0,0,.781-.319c1.487-3.965,2.566-7.458,3.293-10.049A.773.773,0,0,0-504.434,7662.555Z" transform="translate(512.59 -7660.454)"/></g><g transform="translate(5.928 11.35)"><g transform="translate(15.351)"><path class="o" d="M-511.279,7736.568c.388.146.769.307,1.15.468s.756.336,1.135.5.75.349,1.122.529.742.366,1.106.564c-.388-.146-.77-.306-1.15-.468s-.757-.334-1.135-.5-.75-.346-1.122-.529S-510.915,7736.767-511.279,7736.568Z" transform="translate(511.279 -7736.568)"/></g><g transform="translate(5.842 19.014)"><path class="o" d="M-575.051,7864.076c.354.212.7.436,1.042.663s.68.462,1.021.691.672.473,1,.718.661.489.982.75c-.354-.213-.7-.437-1.042-.663s-.68-.462-1.021-.691-.672-.476-1-.72S-574.73,7864.334-575.051,7864.076Z" transform="translate(575.051 -7864.076)"/></g><g transform="translate(0 26.267)"><path class="o" d="M-614.226,7912.72c.215.376.416.759.615,1.146s.388.775.582,1.161.374.782.554,1.175.357.79.521,1.193c-.215-.376-.416-.762-.615-1.146s-.388-.776-.582-1.163-.374-.781-.553-1.174S-614.062,7913.121-614.226,7912.72Z" transform="translate(614.226 -7912.72)"/></g></g></g><g transform="translate(17.794 36.782)"><path class="g" d="M-665,7750.517a27.946,27.946,0,0,1-.828-3.439c-.18-1.176-.314-2.336-.5-3.5-.34-2.33-.7-4.654-1.156-6.964-.43-2.312-.941-4.612-1.587-6.871a13.413,13.413,0,0,0-1.351-3.225,13.076,13.076,0,0,0-2.149-2.778,12.269,12.269,0,0,1,2.3,2.686,13.51,13.51,0,0,1,1.468,3.236c.363,1.125.652,2.272.929,3.42s.521,2.3.747,3.463c.424,2.322.794,4.653,1.075,7,.147,1.169.253,2.353.394,3.512A32.664,32.664,0,0,0-665,7750.517Z" transform="translate(672.565 -7723.737)"/></g><g transform="translate(52.688 48.094)"><path class="g" d="M-438.475,7799.591q.337,2.78.6,5.563c.183,1.856.345,3.713.5,5.573.077.929.127,1.869.124,2.806s-.049,1.875-.149,2.808a25.325,25.325,0,0,1-1.171,5.475,32.588,32.588,0,0,0,.887-5.5,33.8,33.8,0,0,0-.055-5.559c-.15-1.857-.3-3.717-.422-5.577S-438.391,7801.454-438.475,7799.591Z" transform="translate(438.564 -7799.591)"/></g><g transform="translate(38.166 89.49)"><path class="g" d="M-535.949,8077.759a3.333,3.333,0,0,1,.933-.4,4.542,4.542,0,0,1,1.006-.157,3.96,3.96,0,0,1,1.018.082,3.028,3.028,0,0,1,.951.356c-.341-.022-.662-.067-.987-.073s-.645-.013-.967,0-.644.036-.968.072S-535.613,8077.718-535.949,8077.759Z" transform="translate(535.949 -8077.199)"/></g><g transform="translate(27.001 82.823)"><path class="l" d="M-610.825,8032.5a6,6,0,0,1,1.427.119,8.236,8.236,0,0,1,1.386.4,8.836,8.836,0,0,1,2.5,1.463,8.547,8.547,0,0,1,1.886,2.21,7.638,7.638,0,0,1,.965,2.7,22.468,22.468,0,0,0-1.558-2.289,13.712,13.712,0,0,0-1.878-1.914,14.635,14.635,0,0,0-2.221-1.517A18.742,18.742,0,0,0-610.825,8032.5Z" transform="translate(610.825 -8032.491)"/></g><g transform="translate(27.001 82.83)"><path class="g" d="M-610.825,8032.541a9.321,9.321,0,0,1,2.553,1,13.444,13.444,0,0,1,2.259,1.576c.175.148.337.313.506.467l.251.237c.08.083.159.166.236.251l.466.507c.146.178.288.357.43.537.3.35.534.748.794,1.122.243.386.458.792.673,1.193-.285-.36-.538-.735-.82-1.09l-.427-.525c-.072-.087-.139-.178-.213-.265l-.226-.252c-.151-.166-.3-.335-.449-.5l-.476-.479-.236-.241-.248-.229c-.167-.15-.328-.309-.5-.452l-.517-.433c-.173-.144-.359-.27-.535-.411s-.364-.263-.548-.393-.373-.251-.564-.371A14.46,14.46,0,0,0-610.825,8032.541Z" transform="translate(610.825 -8032.541)"/></g><g transform="translate(27.001 88.17)"><path class="g" d="M-610.825,8068.5a9.6,9.6,0,0,1,1.821-.151,13.074,13.074,0,0,1,1.826.135c.3.044.6.1.9.163.149.036.3.075.445.111l.222.058.219.069a8.809,8.809,0,0,1,1.688.7c-.593-.146-1.17-.31-1.76-.427s-1.176-.235-1.769-.314-1.189-.156-1.787-.213S-610.217,8068.534-610.825,8068.5Z" transform="translate(610.825 -8068.347)"/></g><g transform="translate(18.723 104.195)"><path class="g" d="M-666.338,8175.817a18.175,18.175,0,0,0,1.922,1,16.836,16.836,0,0,0,2.012.767c.339.117.689.195,1.034.29.35.074.7.161,1.055.212a19.852,19.852,0,0,0,2.156.229,8.836,8.836,0,0,1-2.193.053,11.01,11.01,0,0,1-1.093-.156c-.358-.087-.719-.165-1.069-.281s-.7-.242-1.037-.379l-.5-.229c-.166-.078-.327-.167-.49-.252A8.806,8.806,0,0,1-666.338,8175.817Z" transform="translate(666.338 -8175.817)"/></g><g transform="translate(13.738 111.188)"><path class="i" d="M-699.768,8222.712a9.145,9.145,0,0,0,1.558,1.61,11.652,11.652,0,0,0,1.843,1.251,13.16,13.16,0,0,0,4.189,1.438,17.571,17.571,0,0,0,4.449.173,28.255,28.255,0,0,0,4.432-.729c-.357.114-.716.23-1.077.339l-1.094.29c-.37.074-.739.157-1.11.225l-.56.086c-.187.03-.374.058-.563.075a16,16,0,0,1-4.539-.1,13.476,13.476,0,0,1-2.208-.578,11.962,11.962,0,0,1-2.061-.977,10.591,10.591,0,0,1-1.82-1.365,10.2,10.2,0,0,1-.781-.822A6.3,6.3,0,0,1-699.768,8222.712Z" transform="translate(699.768 -8222.712)"/></g><g transform="translate(12.643 128.717)"><path class="i" d="M-707.109,8343.8a5.58,5.58,0,0,1,.678-.877c.127-.135.26-.265.393-.395s.277-.25.421-.366a7.957,7.957,0,0,1,1.92-1.146,8.574,8.574,0,0,1,1.057-.382c.179-.058.364-.09.546-.133a5.062,5.062,0,0,1,.551-.11l.558-.073a4.676,4.676,0,0,1,.56-.041l.562-.019c.187-.009.374.015.561.019l.56.034c.187.013.37.048.556.071l.554.079c.184.033.366.078.548.121a8.926,8.926,0,0,1,2.115.748,5.987,5.987,0,0,1,1.781,1.36c.125.142.231.3.344.446a5.163,5.163,0,0,1,.283.482,3.226,3.226,0,0,1,.351,1.052,3.6,3.6,0,0,0-.436-1c-.087-.159-.207-.3-.31-.451-.121-.133-.234-.278-.364-.4a5.809,5.809,0,0,0-.834-.691c-.154-.095-.3-.2-.458-.289l-.484-.246a9.25,9.25,0,0,0-2.064-.668c-.178-.035-.354-.08-.533-.109l-.541-.071c-.181-.024-.36-.057-.542-.067l-.544-.028a10.15,10.15,0,0,0-4.269.633,8.634,8.634,0,0,0-1.92,1.027A7.388,7.388,0,0,0-707.109,8343.8Z" transform="translate(707.109 -8340.262)"/></g><g transform="translate(36.886 111.43)"><path class="i" d="M-544.53,8225.146c.66.16,1.322.306,1.99.415s1.336.214,2.006.295a29.522,29.522,0,0,0,4.036.2c.673-.008,1.345-.056,2.014-.126a19.087,19.087,0,0,0,1.992-.314,16.929,16.929,0,0,0,3.832-1.284c-.294.169-.582.354-.892.5-.153.071-.3.153-.459.223l-.469.207a14.574,14.574,0,0,1-1.948.634,17.989,17.989,0,0,1-4.063.527c-.684.01-1.368,0-2.049-.05s-1.36-.13-2.033-.237A21.387,21.387,0,0,1-544.53,8225.146Z" transform="translate(544.53 -8224.334)"/></g><g transform="translate(39.223 127.796)"><path class="i" d="M-528.859,8337.541a17.868,17.868,0,0,0,1.787.4q.9.149,1.809.208a13.007,13.007,0,0,0,1.81-.016l.448-.045c.15-.017.3-.05.444-.072.3-.04.583-.13.875-.2l-.119.112a5.875,5.875,0,0,1,1.342-1.989,6.3,6.3,0,0,1,1.983-1.325,7.311,7.311,0,0,1,1.137-.354,7.477,7.477,0,0,1,1.174-.159,9.37,9.37,0,0,1,2.339.175,10.783,10.783,0,0,0-2.321.019,7.346,7.346,0,0,0-2.205.6,6.331,6.331,0,0,0-1.855,1.293,6.133,6.133,0,0,0-.72.876,5.209,5.209,0,0,0-.536.981l-.035.092-.084.022a9.247,9.247,0,0,1-1.843.3,11.521,11.521,0,0,1-1.855-.05,13.915,13.915,0,0,1-1.819-.316A13.3,13.3,0,0,1-528.859,8337.541Z" transform="translate(528.859 -8334.087)"/></g><g transform="translate(36.479 114.184)"><path class="i" d="M-547.26,8242.964c.65.22,1.306.415,1.971.577s1.33.313,2,.434a24.98,24.98,0,0,0,4.056.422,18.87,18.87,0,0,0,2.035-.053c.339-.022.675-.066,1.013-.1l.5-.079c.169-.021.335-.053.5-.088a16.036,16.036,0,0,0,3.878-1.268c-.3.167-.588.356-.9.5-.155.076-.308.153-.465.227l-.476.2a13.477,13.477,0,0,1-1.976.618,14.509,14.509,0,0,1-2.047.335,17.5,17.5,0,0,1-2.073.076,21.083,21.083,0,0,1-4.105-.506A19.593,19.593,0,0,1-547.26,8242.964Z" transform="translate(547.26 -8242.805)"/></g><g transform="translate(42.797 119.946)"><path class="i" d="M-494.342,8285.462a.394.394,0,0,1-.235.49,18.767,18.767,0,0,1-6.13,1.091,24.133,24.133,0,0,1-2.975-.135,1.217,1.217,0,0,1-1.05-.925,6.055,6.055,0,0,1-.016-2.682,1.222,1.222,0,0,1,1.347-.962,15.644,15.644,0,0,0,7.721-.861.39.39,0,0,1,.54.311A22.543,22.543,0,0,0-494.342,8285.462Z" transform="translate(504.891 -8281.447)"/></g><g transform="translate(14.093 119.023)"><path class="i" d="M-684.091,8281.424a.339.339,0,0,1-.29.369,22.736,22.736,0,0,1-3.08.209,27.608,27.608,0,0,1-9.71-1.876.337.337,0,0,1-.21-.382,14.5,14.5,0,0,0,.146-4.121.336.336,0,0,1,.47-.342,21.812,21.812,0,0,0,12.483,1.815.337.337,0,0,1,.386.4A13.162,13.162,0,0,0-684.091,8281.424Z" transform="translate(697.388 -8275.252)"/></g><g transform="translate(43.359 105.91)"><path class="g" d="M-501.122,8188.663c.569-.009,1.128-.041,1.685-.088s1.108-.125,1.653-.23a12.572,12.572,0,0,0,1.613-.408,14.052,14.052,0,0,0,1.563-.622,5.853,5.853,0,0,1-1.462.889,3.314,3.314,0,0,1-.4.16c-.136.044-.269.1-.408.139l-.416.11c-.139.035-.281.061-.421.093a9.18,9.18,0,0,1-1.709.152A7.181,7.181,0,0,1-501.122,8188.663Z" transform="translate(501.122 -8187.315)"/></g><g transform="translate(39.81 106.933)"><path class="g" d="M-524.926,8194.175a14.035,14.035,0,0,0,1.882.748c.318.1.639.188.968.255s.662.124,1.007.194a3.482,3.482,0,0,1-1.045.09,4.269,4.269,0,0,1-1.038-.188,4.33,4.33,0,0,1-.963-.433A3.092,3.092,0,0,1-524.926,8194.175Z" transform="translate(524.926 -8194.175)"/></g><g transform="translate(2.677 39.122)"><path class="i" d="M-773.941,7739.425a22.851,22.851,0,0,0,2.128.992q1.082.451,2.2.815c.742.24,1.491.457,2.249.635a23.3,23.3,0,0,0,2.292.439,21.37,21.37,0,0,0,2.321.217,19.758,19.758,0,0,0,2.331-.029c.389-.016.774-.075,1.162-.112.384-.061.773-.1,1.154-.187a20.021,20.021,0,0,0,2.276-.569,16.024,16.024,0,0,1-4.568,1.153,19.285,19.285,0,0,1-4.729-.109,23.061,23.061,0,0,1-4.582-1.168A21.064,21.064,0,0,1-773.941,7739.425Z" transform="translate(773.941 -7739.425)"/></g><g transform="translate(16.905 50.697)"><path class="g" d="M-675.634,7817.05c-.2.619-.424,1.227-.656,1.831s-.474,1.2-.715,1.8-.494,1.192-.748,1.784-.507,1.185-.775,1.778a15.472,15.472,0,0,1,.508-1.879c.2-.618.435-1.221.677-1.822s.509-1.19.793-1.773S-675.971,7817.607-675.634,7817.05Z" transform="translate(678.529 -7817.05)"/></g><g transform="translate(27.692 89.509)"><path class="l" d="M-597.281,8078.555s0,.013,0,.036a3.777,3.777,0,0,1,.71-1.265h0a7.141,7.141,0,0,0-2.469,3.185l-1.617,4.122-4.182,9.258a15.182,15.182,0,0,1,.207,3.043,1.5,1.5,0,0,1-.349.941l-.927,1.1-.287,1.921c.342-.042.69-.1,1.043-.164l.232-1.757.927-1.1a1.5,1.5,0,0,0,.35-.941,15.173,15.173,0,0,0-.207-3.043l4.182-9.258Z" transform="translate(606.191 -8077.326)"/></g><g transform="translate(33.979 85.431)"><path class="l" d="M-564.027,8059.8a12.3,12.3,0,0,1,.9-2.965,16.345,16.345,0,0,1,1.514-2.716,14.075,14.075,0,0,1,2.033-2.363c.194-.174.39-.347.586-.516s.418-.312.628-.465l.319-.222c.111-.068.222-.135.337-.2.226-.127.452-.254.684-.37-.172.2-.349.385-.526.568-.087.094-.179.181-.267.271l-.25.288-.506.559c-.159.2-.32.388-.482.579-.633.773-1.243,1.562-1.8,2.389s-1.109,1.663-1.629,2.525S-563.513,8058.9-564.027,8059.8Z" transform="translate(564.027 -8049.981)"/></g><g transform="translate(14.509 108.824)"><path class="i" d="M-694.6,8206.859a12.385,12.385,0,0,0,1.641,1.314,16.316,16.316,0,0,0,1.8,1.066,15.986,15.986,0,0,0,1.919.828,15.236,15.236,0,0,0,2,.581,15.968,15.968,0,0,0,2.061.335l.26.027.261.02.522.034.524.011.262.009.262-.006a24.283,24.283,0,0,0,4.182-.434,17.473,17.473,0,0,1-4.173.718,15.754,15.754,0,0,1-4.24-.356,14.785,14.785,0,0,1-3.977-1.517A12.033,12.033,0,0,1-694.6,8206.859Z" transform="translate(694.597 -8206.859)"/></g><g transform="translate(35.796 87.694)"><path class="g" d="M-551.844,8070.255a5.783,5.783,0,0,1,.419-1.5,8.209,8.209,0,0,1,.73-1.381,8.13,8.13,0,0,1,.974-1.221,6.8,6.8,0,0,1,1.193-1c-.33.4-.67.781-.978,1.184s-.607.812-.884,1.235-.534.858-.778,1.3S-551.636,8069.781-551.844,8070.255Z" transform="translate(551.844 -8065.157)"/></g><g transform="translate(62.861 36.894)"><path class="g" d="M-365.167,7730.157a5.966,5.966,0,0,0,.846-.828,23.845,23.845,0,0,0,3.119-4.573.447.447,0,0,1,.436-.27,11.044,11.044,0,0,1,6.655,2.9.454.454,0,0,1,.1.532,79.535,79.535,0,0,0-4,10.321c-2.01,6.468-4.323,9.4-4.323,9.4a4.161,4.161,0,0,1-1.438,1.621.529.529,0,0,1-.688-.093c-1.25-1.411-6.108-7.331-5.877-13.816a1,1,0,0,1,.294-.665,6.707,6.707,0,0,1,1.119-.916A40.936,40.936,0,0,1-365.167,7730.157Z" transform="translate(370.339 -7724.485)"/><g transform="translate(1.643 9.044)"><path class="i" d="M-352.955,7799.244a9,9,0,0,1-1.46-1.339,14.723,14.723,0,0,1-1.221-1.57,19.955,19.955,0,0,1-1.863-3.507l-.363-.927c-.109-.312-.211-.627-.313-.943l-.151-.472c-.051-.157-.086-.319-.13-.479l-.247-.961c-.155-.643-.259-1.3-.385-1.946-.082-.656-.168-1.309-.235-1.965.149.643.269,1.29.411,1.932l.24.955.117.479.058.239.07.233c.2.625.348,1.265.581,1.878l.32.926.366.911a24.369,24.369,0,0,0,1.764,3.493,18.067,18.067,0,0,0,1.12,1.611A10.561,10.561,0,0,0-352.955,7799.244Z" transform="translate(359.324 -7785.135)"/></g><g transform="translate(8.29 1.69)"><path class="i" d="M-307.43,7739.13c-.546-.42-1.1-.813-1.671-1.186a17.133,17.133,0,0,0-1.76-1.01,10.848,10.848,0,0,0-1.878-.731,8.885,8.885,0,0,0-.989-.208,8.793,8.793,0,0,0-1.02-.071,4.866,4.866,0,0,1,1.033-.107,6.436,6.436,0,0,1,1.041.108,7.716,7.716,0,0,1,1.011.275c.329.118.649.257.963.406a10.918,10.918,0,0,1,1.762,1.1A9.511,9.511,0,0,1-307.43,7739.13Z" transform="translate(314.747 -7735.816)"/></g></g><g transform="translate(58.803 46.769)"><path class="g" d="M-397.554,7797.658a7.348,7.348,0,0,1,.69-2.19,9.681,9.681,0,0,1,1.235-1.954,9.944,9.944,0,0,1,1.653-1.615,9.684,9.684,0,0,1,.947-.657c.159-.106.335-.187.5-.279s.341-.173.513-.256q-.229.174-.459.343c-.151.115-.314.212-.455.342-.291.242-.595.465-.866.727-.137.129-.28.251-.416.382l-.393.4c-.135.129-.256.274-.38.413s-.253.277-.363.428l-.349.441-.323.462c-.212.308-.409.628-.6.955A12.093,12.093,0,0,0-397.554,7797.658Z" transform="translate(397.554 -7790.706)"/></g><g transform="translate(53.508 48.903)"><path class="g" d="M-433.061,7805.021c.392.192.779.372,1.17.541s.786.318,1.187.448a11.57,11.57,0,0,0,1.219.34c.413.1.833.153,1.266.228a4.447,4.447,0,0,1-1.31.053l-.165-.014-.163-.026-.326-.057c-.213-.054-.428-.107-.636-.176a6.441,6.441,0,0,1-1.2-.542A4.77,4.77,0,0,1-433.061,7805.021Z" transform="translate(433.061 -7805.021)"/></g><g transform="translate(58.95 44.935)"><path class="g" d="M-393.194,7781.251a3.476,3.476,0,0,1-1.112-.312,4.263,4.263,0,0,1-.985-.622,4.239,4.239,0,0,1-.783-.863,3.491,3.491,0,0,1-.5-1.041c.239.3.472.59.722.863a8.808,8.808,0,0,0,.794.761,8.741,8.741,0,0,0,.885.651C-393.858,7780.891-393.533,7781.07-393.194,7781.251Z" transform="translate(396.571 -7778.414)"/></g></g></g></g></g></g></svg>