<svg xmlns="http://www.w3.org/2000/svg" xmlns:xlink="http://www.w3.org/1999/xlink" width="900" height="300" viewBox="0 0 900 300"><defs><style>.a{fill:#fff;}.b{clip-path:url(#a);}.c{fill:none;stroke:#ebebeb;stroke-miterlimit:10;}</style><clipPath id="a"><rect class="a" width="900" height="300" transform="translate(-17539 2897)"/></clipPath></defs><g class="b" transform="translate(17539 -2897)"><g transform="translate(-17688.277 2823.806)"><g transform="translate(91.477)"><g transform="translate(0)"><path class="c" d="M-3.2-227.181a26.232,26.232,0,0,0-6.853-9.025,30.578,30.578,0,0,0-10.324-5.667,40.678,40.678,0,0,0-12.8-1.94H-51.406a2.578,2.578,0,0,0-2.578,2.578V-188.8a2.578,2.578,0,0,0,2.578,2.578h18.22a38.425,38.425,0,0,0,12.807-2.159,31.574,31.574,0,0,0,10.324-5.888A27.073,27.073,0,0,0-3.2-203.378a27.717,27.717,0,0,0,2.48-11.856A27.954,27.954,0,0,0-3.2-227.181ZM-17.9-208.7a14.278,14.278,0,0,1-3.518,4.842,15.309,15.309,0,0,1-5.275,3.007,20.218,20.218,0,0,1-6.583,1.046h-5.14v-30.43h5.14a22.966,22.966,0,0,1,6.583.915,14.9,14.9,0,0,1,5.275,2.745,13.09,13.09,0,0,1,3.518,4.666,15.835,15.835,0,0,1,1.308,6.672A15.663,15.663,0,0,1-17.9-208.7Z" transform="translate(96.286 250.394)"/><rect class="c" width="19.518" height="57.578" rx="4.722" transform="translate(350.696 9.869)"/><path class="c" d="M1462.543-227.417a27.476,27.476,0,0,0-5.618-9.052,25.259,25.259,0,0,0-8.622-5.924,27.769,27.769,0,0,0-10.951-2.141,23.361,23.361,0,0,0-9.532,1.81,17.338,17.338,0,0,0-5.289,3.6c-.01.01-.059.049-.071.06a.8.8,0,0,1-.531.2.8.8,0,0,1-.8-.8v-2.88q0-.328,0-.655v-.391a.837.837,0,0,0-.186-.567.79.79,0,0,0-.589-.273H1406a.775.775,0,0,0-.775.775h0v70.522a.775.775,0,0,0,.775.775h16.03l.025,0,.024,0a.775.775,0,0,0,.751-.773s0-17.25,0-17.258a.775.775,0,0,1,.775-.775.787.787,0,0,1,.492.178q5.032,3.945,13.257,3.944a27.809,27.809,0,0,0,10.951-2.138,24.919,24.919,0,0,0,8.622-5.98,27.949,27.949,0,0,0,5.618-9.164,32.042,32.042,0,0,0,2.043-11.575A31.627,31.627,0,0,0,1462.543-227.417Zm-18.894,16.679a11.443,11.443,0,0,1-2.5,3.676,9.75,9.75,0,0,1-3.517,2.194,12.176,12.176,0,0,1-4.143.713,11.838,11.838,0,0,1-4.028-.713,9.749,9.749,0,0,1-3.517-2.194,11.411,11.411,0,0,1-2.5-3.676,12.733,12.733,0,0,1-.966-5.157,12.74,12.74,0,0,1,.966-5.157,10.768,10.768,0,0,1,2.5-3.62,9.486,9.486,0,0,1,3.517-2.085,12.682,12.682,0,0,1,4.028-.659,12.71,12.71,0,0,1,4.2.713,9.7,9.7,0,0,1,3.575,2.194,10.8,10.8,0,0,1,2.44,3.676,13.143,13.143,0,0,1,.908,5.048A12.429,12.429,0,0,1,1443.649-210.738Z" transform="translate(-1123.314 250.996)"/><path class="c" d="M722.648-213.89l-10.1,21.252-2.263,4.764L698.1-213.89h-20.67l28.36,54.873c-.042-.08-.075-.166-.113-.248.045.1.085.2.136.291l.038.071a5.112,5.112,0,0,0,4.51,2.614,5.112,5.112,0,0,0,4.642-3.081l.538-.957,27.774-53.563Z" transform="translate(-515.031 225.384)"/><path class="c" d="M1087.194-230.3a2.6,2.6,0,0,1,.181.315l-24.194-52.243h0a2.573,2.573,0,0,0-2.4-1.659,2.573,2.573,0,0,0-2.4,1.658l-24.162,52.165.009.015a2.549,2.549,0,0,0-.3,1.185,2.578,2.578,0,0,0,2.578,2.578h12.8a2.577,2.577,0,0,0,2.359-1.543l9.158-20.707,9.082,20.722.017.011a2.574,2.574,0,0,0,2.34,1.516h12.791a2.578,2.578,0,0,0,2.578-2.578A2.565,2.565,0,0,0,1087.194-230.3Z" transform="translate(-812.985 283.89)"/><path class="c" d="M375.99-227.912a24.666,24.666,0,0,0-5.4-8.29,25.661,25.661,0,0,0-8.576-5.656,29.371,29.371,0,0,0-11.3-2.085,32.206,32.206,0,0,0-11.925,2.194,30.079,30.079,0,0,0-9.654,6.042,27.733,27.733,0,0,0-6.417,9.117,27.922,27.922,0,0,0-2.328,11.42,27.922,27.922,0,0,0,2.328,11.42,26.6,26.6,0,0,0,6.589,9.117,31.372,31.372,0,0,0,10.107,6.042,36.379,36.379,0,0,0,12.88,2.265,37.356,37.356,0,0,0,20.586-6.051,2.568,2.568,0,0,0,1.243-2.2,2.561,2.561,0,0,0-.7-1.751,2.613,2.613,0,0,1,.207.251l-4.49-8.187-.01,0a2.57,2.57,0,0,0-2.3-1.439,2.567,2.567,0,0,0-.993.2l-.041.02a31.38,31.38,0,0,1-5.089,2.06,26.59,26.59,0,0,1-7.723,1.1,18.262,18.262,0,0,1-7.892-1.54,10.054,10.054,0,0,1-4.827-4.724h34.342a2.578,2.578,0,0,0,2.578-2.578,2.581,2.581,0,0,1-.047.463c.143-.7.27-1.434.378-2.22a36.52,36.52,0,0,0,.341-5A26.862,26.862,0,0,0,375.99-227.912Zm-36.4,7.032a12.109,12.109,0,0,1,3.974-6.1,10.007,10.007,0,0,1,6.361-2.144,10.014,10.014,0,0,1,6.473,2.2,8,8,0,0,1,2.953,6.042Z" transform="translate(-216.619 250.502)"/><path class="c" d="M1220.879,136.646h-17.967c-.428,0-.775.473-.775,1.057v76.375c0,.584.347,1.057.775,1.057h17.967c.428,0,.775-.473.775-1.057V137.7C1221.655,137.119,1221.307,136.646,1220.879,136.646Z" transform="translate(-953.576 -67.593)"/><path class="c" d="M830.543,192.583a27.478,27.478,0,0,0-5.618-9.052,25.26,25.26,0,0,0-8.622-5.924,27.769,27.769,0,0,0-10.951-2.141,23.362,23.362,0,0,0-9.532,1.81,17.339,17.339,0,0,0-5.289,3.6c-.01.01-.059.049-.071.06a.8.8,0,0,1-1.334-.6v-2.88q0-.328,0-.655v-.391a.837.837,0,0,0-.186-.567.789.789,0,0,0-.589-.273H774a.775.775,0,0,0-.775.775h0v70.522a.775.775,0,0,0,.775.775h16.03l.025,0,.024,0a.775.775,0,0,0,.751-.773s0-17.25,0-17.258a.775.775,0,0,1,.775-.775.787.787,0,0,1,.492.178q5.032,3.945,13.257,3.944a27.809,27.809,0,0,0,10.951-2.138,24.92,24.92,0,0,0,8.622-5.98,27.951,27.951,0,0,0,5.618-9.164,32.041,32.041,0,0,0,2.043-11.575A31.625,31.625,0,0,0,830.543,192.583Zm-18.894,16.679a11.441,11.441,0,0,1-2.5,3.676,9.751,9.751,0,0,1-3.517,2.194,12.177,12.177,0,0,1-4.143.713,11.838,11.838,0,0,1-4.028-.713,9.751,9.751,0,0,1-3.517-2.194,11.409,11.409,0,0,1-2.5-3.676,14.251,14.251,0,0,1,0-10.315,10.766,10.766,0,0,1,2.5-3.62,9.487,9.487,0,0,1,3.517-2.085,12.681,12.681,0,0,1,8.227.054,9.7,9.7,0,0,1,3.575,2.194,10.8,10.8,0,0,1,2.44,3.676,13.143,13.143,0,0,1,.908,5.048A12.427,12.427,0,0,1,811.649,209.262Z" transform="translate(-595.09 -100.038)"/><path class="c" d="M90.648,176.11l-10.1,21.252-2.263,4.764L66.1,176.11H45.434l28.36,54.873c-.042-.08-.075-.166-.113-.248.045.1.085.2.136.291l.038.071a5.112,5.112,0,0,0,9.152-.467l.538-.957,27.774-53.563Z" transform="translate(13.193 -100.577)"/><path class="c" d="M445.194,229.7a2.587,2.587,0,0,1,.181.315l-24.194-52.243h0a2.568,2.568,0,0,0-4.8,0l-24.162,52.165.009.015a2.55,2.55,0,0,0-.3,1.185,2.578,2.578,0,0,0,2.578,2.578h12.8a2.577,2.577,0,0,0,2.358-1.543l9.158-20.707,9.082,20.722.017.011a2.574,2.574,0,0,0,2.34,1.516h12.791a2.578,2.578,0,0,0,2.14-4.015Z" transform="translate(-276.403 -100.577)"/><path class="c" d="M-256.01,192.088a24.666,24.666,0,0,0-5.4-8.29,25.66,25.66,0,0,0-8.576-5.656,29.371,29.371,0,0,0-11.3-2.085,32.205,32.205,0,0,0-11.925,2.194,30.079,30.079,0,0,0-9.654,6.042,27.733,27.733,0,0,0-6.417,9.117,27.922,27.922,0,0,0-2.328,11.42,27.922,27.922,0,0,0,2.328,11.42,26.6,26.6,0,0,0,6.588,9.117,31.374,31.374,0,0,0,10.107,6.042,36.38,36.38,0,0,0,12.88,2.265,37.356,37.356,0,0,0,20.586-6.051,2.568,2.568,0,0,0,1.242-2.2,2.561,2.561,0,0,0-.7-1.751,2.612,2.612,0,0,1,.207.251l-4.49-8.187-.01,0a2.57,2.57,0,0,0-2.3-1.439,2.567,2.567,0,0,0-.993.2l-.041.02a31.378,31.378,0,0,1-5.089,2.06,26.589,26.589,0,0,1-7.723,1.1,18.262,18.262,0,0,1-7.892-1.54,10.054,10.054,0,0,1-4.827-4.724h34.342a2.578,2.578,0,0,0,2.578-2.578,2.581,2.581,0,0,1-.047.463c.143-.7.27-1.434.377-2.22a36.515,36.515,0,0,0,.341-5A26.861,26.861,0,0,0-256.01,192.088Zm-36.4,7.032a12.109,12.109,0,0,1,3.974-6.1,10.007,10.007,0,0,1,6.361-2.144,10.014,10.014,0,0,1,6.473,2.2,8,8,0,0,1,2.953,6.042Z" transform="translate(311.605 -100.532)"/><path class="c" d="M1455.8,274.819a26.231,26.231,0,0,0-6.853-9.025,30.577,30.577,0,0,0-10.324-5.667,40.678,40.678,0,0,0-12.8-1.94h-18.223a2.578,2.578,0,0,0-2.578,2.578V313.2a2.578,2.578,0,0,0,2.578,2.578h18.22a38.425,38.425,0,0,0,12.807-2.159,31.573,31.573,0,0,0,10.324-5.888,27.071,27.071,0,0,0,6.853-9.111,29.795,29.795,0,0,0,0-23.8ZM1441.1,293.3a14.279,14.279,0,0,1-3.518,4.842,15.31,15.31,0,0,1-5.275,3.007,20.217,20.217,0,0,1-6.583,1.046h-5.14v-30.43h5.14a22.964,22.964,0,0,1,6.583.915,14.9,14.9,0,0,1,5.275,2.745,13.09,13.09,0,0,1,3.518,4.666,15.835,15.835,0,0,1,1.308,6.672A15.662,15.662,0,0,1,1441.1,293.3Z" transform="translate(-1123.141 -169.176)"/><path class="c" d="M1834.99,174.088a24.662,24.662,0,0,0-5.4-8.29,25.66,25.66,0,0,0-8.576-5.656,29.372,29.372,0,0,0-11.3-2.085,32.206,32.206,0,0,0-11.925,2.194,30.08,30.08,0,0,0-9.654,6.042,28.714,28.714,0,0,0-6.417,31.958,26.6,26.6,0,0,0,6.589,9.117,31.374,31.374,0,0,0,10.107,6.042,36.38,36.38,0,0,0,12.88,2.265,37.356,37.356,0,0,0,20.587-6.051,2.557,2.557,0,0,0,.547-3.947,2.621,2.621,0,0,1,.207.251l-4.49-8.187-.01,0a2.563,2.563,0,0,0-3.294-1.24l-.042.02a31.379,31.379,0,0,1-5.089,2.06,26.589,26.589,0,0,1-7.723,1.1,18.262,18.262,0,0,1-7.892-1.54,10.055,10.055,0,0,1-4.827-4.724h34.342a2.578,2.578,0,0,0,2.578-2.578,2.564,2.564,0,0,1-.047.463c.143-.7.27-1.434.378-2.22a36.511,36.511,0,0,0,.341-5A26.861,26.861,0,0,0,1834.99,174.088Zm-36.4,7.032a12.107,12.107,0,0,1,3.974-6.1,10.569,10.569,0,0,1,12.834.054,8,8,0,0,1,2.953,6.042Z" transform="translate(-1436.046 -85.488)"/><path class="c" d="M-62.2,612.819a26.232,26.232,0,0,0-6.853-9.025,30.577,30.577,0,0,0-10.324-5.667,40.679,40.679,0,0,0-12.8-1.94h-18.223a2.578,2.578,0,0,0-2.578,2.578V651.2a2.578,2.578,0,0,0,2.578,2.578h18.22a38.425,38.425,0,0,0,12.807-2.159,31.575,31.575,0,0,0,10.324-5.888,27.072,27.072,0,0,0,6.853-9.111,27.717,27.717,0,0,0,2.48-11.856A27.953,27.953,0,0,0-62.2,612.819ZM-76.9,631.3a14.28,14.28,0,0,1-3.518,4.842,15.309,15.309,0,0,1-5.275,3.007,20.22,20.22,0,0,1-6.583,1.046h-5.14v-30.43h5.14a22.967,22.967,0,0,1,6.583.915,14.9,14.9,0,0,1,5.275,2.745,13.09,13.09,0,0,1,3.518,4.666,15.835,15.835,0,0,1,1.308,6.672A15.663,15.663,0,0,1-76.9,631.3Z" transform="translate(145.598 -451.676)"/><path class="c" d="M1852.879,571.646h-17.967a.914.914,0,0,0-.775,1.007v72.735a.914.914,0,0,0,.775,1.007h17.967a.914.914,0,0,0,.775-1.007V572.653A.914.914,0,0,0,1852.879,571.646Z" transform="translate(-1481.799 -431.164)"/><path class="c" d="M1462.543,692.583a27.477,27.477,0,0,0-5.618-9.052,25.26,25.26,0,0,0-8.622-5.924,27.771,27.771,0,0,0-10.951-2.141,23.361,23.361,0,0,0-9.532,1.81,17.338,17.338,0,0,0-5.289,3.6c-.01.01-.059.049-.071.06a.8.8,0,0,1-1.334-.6v-2.88q0-.328,0-.655v-.391a.837.837,0,0,0-.186-.567.789.789,0,0,0-.589-.273H1406a.775.775,0,0,0-.775.775h0v70.522a.775.775,0,0,0,.775.775h16.03l.025,0,.024,0a.775.775,0,0,0,.751-.773s0-17.25,0-17.258a.775.775,0,0,1,.775-.775.787.787,0,0,1,.492.178q5.032,3.944,13.257,3.944a27.808,27.808,0,0,0,10.951-2.138,24.917,24.917,0,0,0,8.622-5.98,27.949,27.949,0,0,0,5.618-9.164,32.043,32.043,0,0,0,2.043-11.575A31.626,31.626,0,0,0,1462.543,692.583Zm-18.894,16.679a11.443,11.443,0,0,1-2.5,3.676,9.748,9.748,0,0,1-3.517,2.194,12.175,12.175,0,0,1-4.143.713,11.837,11.837,0,0,1-4.028-.713,9.748,9.748,0,0,1-3.517-2.194,11.411,11.411,0,0,1-2.5-3.676,14.253,14.253,0,0,1,0-10.315,10.768,10.768,0,0,1,2.5-3.62,9.486,9.486,0,0,1,3.517-2.085,12.682,12.682,0,0,1,8.227.054,9.7,9.7,0,0,1,3.575,2.194,10.8,10.8,0,0,1,2.44,3.676,13.143,13.143,0,0,1,.908,5.048A12.429,12.429,0,0,1,1443.649,709.262Z" transform="translate(-1123.314 -517.937)"/><path class="c" d="M722.648,676.11l-10.1,21.252-2.263,4.764L698.1,676.11h-20.67l28.36,54.873c-.042-.08-.075-.166-.113-.248.045.1.085.2.136.291l.038.071a5.112,5.112,0,0,0,9.152-.467l.538-.957,27.774-53.563Z" transform="translate(-515.031 -518.475)"/><path class="c" d="M1077.195,729.7a2.624,2.624,0,0,1,.181.315l-24.194-52.243h0a2.568,2.568,0,0,0-4.8,0l-24.162,52.165.009.015a2.549,2.549,0,0,0-.3,1.185,2.578,2.578,0,0,0,2.578,2.578h12.8a2.576,2.576,0,0,0,2.358-1.543l0,.017,9.162-20.724,9.082,20.722.017.011a2.575,2.575,0,0,0,2.34,1.516h12.791a2.578,2.578,0,0,0,2.141-4.015Z" transform="translate(-804.627 -518.475)"/><path class="c" d="M329.473,614.97a25.771,25.771,0,0,0-5.636-8.661,26.807,26.807,0,0,0-8.959-5.908,30.681,30.681,0,0,0-11.8-2.178,33.643,33.643,0,0,0-12.458,2.292,31.42,31.42,0,0,0-10.085,6.312,30,30,0,0,0-6.7,33.385,27.786,27.786,0,0,0,6.883,9.524,32.777,32.777,0,0,0,10.559,6.312,38.008,38.008,0,0,0,13.455,2.366,39.024,39.024,0,0,0,21.506-6.322,2.671,2.671,0,0,0,.571-4.123,2.717,2.717,0,0,1,.216.262l-4.691-8.552-.01,0a2.678,2.678,0,0,0-3.442-1.3l-.043.021a32.792,32.792,0,0,1-5.317,2.152,27.777,27.777,0,0,1-8.068,1.148A19.078,19.078,0,0,1,297.2,640.1a10.5,10.5,0,0,1-5.043-4.935H328.02l.014,0a2.693,2.693,0,0,0,2.693-2.693,2.7,2.7,0,0,1-.049.484q.224-1.09.394-2.319a38.144,38.144,0,0,0,.356-5.225A28.065,28.065,0,0,0,329.473,614.97Zm-38.026,7.346a12.65,12.65,0,0,1,4.152-6.369,11.041,11.041,0,0,1,13.407.057,8.355,8.355,0,0,1,3.084,6.312Z" transform="translate(-175.665 -453.377)"/></g><g transform="translate(385.181)"><path class="c" d="M-3.2-227.181a26.232,26.232,0,0,0-6.853-9.025,30.578,30.578,0,0,0-10.324-5.667,40.678,40.678,0,0,0-12.8-1.94H-51.406a2.578,2.578,0,0,0-2.578,2.578V-188.8a2.578,2.578,0,0,0,2.578,2.578h18.22a38.425,38.425,0,0,0,12.807-2.159,31.574,31.574,0,0,0,10.324-5.888A27.073,27.073,0,0,0-3.2-203.378a27.717,27.717,0,0,0,2.48-11.856A27.954,27.954,0,0,0-3.2-227.181ZM-17.9-208.7a14.278,14.278,0,0,1-3.518,4.842,15.309,15.309,0,0,1-5.275,3.007,20.218,20.218,0,0,1-6.583,1.046h-5.14v-30.43h5.14a22.966,22.966,0,0,1,6.583.915,14.9,14.9,0,0,1,5.275,2.745,13.09,13.09,0,0,1,3.518,4.666,15.835,15.835,0,0,1,1.308,6.672A15.663,15.663,0,0,1-17.9-208.7Z" transform="translate(63.672 250.394)"/><rect class="c" width="19.518" height="57.578" rx="4.722" transform="translate(318.082 9.869)"/><path class="c" d="M1462.543-227.417a27.476,27.476,0,0,0-5.618-9.052,25.259,25.259,0,0,0-8.622-5.924,27.769,27.769,0,0,0-10.951-2.141,23.361,23.361,0,0,0-9.532,1.81,17.338,17.338,0,0,0-5.289,3.6c-.01.01-.059.049-.071.06a.8.8,0,0,1-.531.2.8.8,0,0,1-.8-.8v-2.88q0-.328,0-.655v-.391a.837.837,0,0,0-.186-.567.79.79,0,0,0-.589-.273H1406a.775.775,0,0,0-.775.775h0v70.522a.775.775,0,0,0,.775.775h16.03l.025,0,.024,0a.775.775,0,0,0,.751-.773s0-17.25,0-17.258a.775.775,0,0,1,.775-.775.787.787,0,0,1,.492.178q5.032,3.945,13.257,3.944a27.809,27.809,0,0,0,10.951-2.138,24.919,24.919,0,0,0,8.622-5.98,27.949,27.949,0,0,0,5.618-9.164,32.042,32.042,0,0,0,2.043-11.575A31.627,31.627,0,0,0,1462.543-227.417Zm-18.894,16.679a11.443,11.443,0,0,1-2.5,3.676,9.75,9.75,0,0,1-3.517,2.194,12.176,12.176,0,0,1-4.143.713,11.838,11.838,0,0,1-4.028-.713,9.749,9.749,0,0,1-3.517-2.194,11.411,11.411,0,0,1-2.5-3.676,12.733,12.733,0,0,1-.966-5.157,12.74,12.74,0,0,1,.966-5.157,10.768,10.768,0,0,1,2.5-3.62,9.486,9.486,0,0,1,3.517-2.085,12.682,12.682,0,0,1,4.028-.659,12.71,12.71,0,0,1,4.2.713,9.7,9.7,0,0,1,3.575,2.194,10.8,10.8,0,0,1,2.44,3.676,13.143,13.143,0,0,1,.908,5.048A12.429,12.429,0,0,1,1443.649-210.738Z" transform="translate(-1155.928 250.996)"/><path class="c" d="M722.648-213.89l-10.1,21.252-2.263,4.764L698.1-213.89h-20.67l28.36,54.873c-.042-.08-.075-.166-.113-.248.045.1.085.2.136.291l.038.071a5.112,5.112,0,0,0,4.51,2.614,5.112,5.112,0,0,0,4.642-3.081l.538-.957,27.774-53.563Z" transform="translate(-547.645 225.384)"/><path class="c" d="M1087.194-230.3a2.6,2.6,0,0,1,.181.315l-24.194-52.243h0a2.573,2.573,0,0,0-2.4-1.659,2.573,2.573,0,0,0-2.4,1.658l-24.162,52.165.009.015a2.549,2.549,0,0,0-.3,1.185,2.578,2.578,0,0,0,2.578,2.578h12.8a2.577,2.577,0,0,0,2.359-1.543l9.158-20.707,9.082,20.722.017.011a2.574,2.574,0,0,0,2.34,1.516h12.791a2.578,2.578,0,0,0,2.578-2.578A2.565,2.565,0,0,0,1087.194-230.3Z" transform="translate(-845.599 283.89)"/><path class="c" d="M375.99-227.912a24.666,24.666,0,0,0-5.4-8.29,25.661,25.661,0,0,0-8.576-5.656,29.371,29.371,0,0,0-11.3-2.085,32.206,32.206,0,0,0-11.925,2.194,30.079,30.079,0,0,0-9.654,6.042,27.733,27.733,0,0,0-6.417,9.117,27.922,27.922,0,0,0-2.328,11.42,27.922,27.922,0,0,0,2.328,11.42,26.6,26.6,0,0,0,6.589,9.117,31.372,31.372,0,0,0,10.107,6.042,36.379,36.379,0,0,0,12.88,2.265,37.356,37.356,0,0,0,20.586-6.051,2.568,2.568,0,0,0,1.243-2.2,2.561,2.561,0,0,0-.7-1.751,2.613,2.613,0,0,1,.207.251l-4.49-8.187-.01,0a2.57,2.57,0,0,0-2.3-1.439,2.567,2.567,0,0,0-.993.2l-.041.02a31.38,31.38,0,0,1-5.089,2.06,26.59,26.59,0,0,1-7.723,1.1,18.262,18.262,0,0,1-7.892-1.54,10.054,10.054,0,0,1-4.827-4.724h34.342a2.578,2.578,0,0,0,2.578-2.578,2.581,2.581,0,0,1-.047.463c.143-.7.27-1.434.378-2.22a36.52,36.52,0,0,0,.341-5A26.862,26.862,0,0,0,375.99-227.912Zm-36.4,7.032a12.109,12.109,0,0,1,3.974-6.1,10.007,10.007,0,0,1,6.361-2.144,10.014,10.014,0,0,1,6.473,2.2,8,8,0,0,1,2.953,6.042Z" transform="translate(-249.233 250.502)"/><path class="c" d="M1220.879,136.646h-17.967c-.428,0-.775.473-.775,1.057v76.375c0,.584.347,1.057.775,1.057h17.967c.428,0,.775-.473.775-1.057V137.7C1221.655,137.119,1221.307,136.646,1220.879,136.646Z" transform="translate(-986.19 -67.593)"/><path class="c" d="M830.543,192.583a27.478,27.478,0,0,0-5.618-9.052,25.26,25.26,0,0,0-8.622-5.924,27.769,27.769,0,0,0-10.951-2.141,23.362,23.362,0,0,0-9.532,1.81,17.339,17.339,0,0,0-5.289,3.6c-.01.01-.059.049-.071.06a.8.8,0,0,1-1.334-.6v-2.88q0-.328,0-.655v-.391a.837.837,0,0,0-.186-.567.789.789,0,0,0-.589-.273H774a.775.775,0,0,0-.775.775h0v70.522a.775.775,0,0,0,.775.775h16.03l.025,0,.024,0a.775.775,0,0,0,.751-.773s0-17.25,0-17.258a.775.775,0,0,1,.775-.775.787.787,0,0,1,.492.178q5.032,3.945,13.257,3.944a27.809,27.809,0,0,0,10.951-2.138,24.92,24.92,0,0,0,8.622-5.98,27.951,27.951,0,0,0,5.618-9.164,32.041,32.041,0,0,0,2.043-11.575A31.625,31.625,0,0,0,830.543,192.583Zm-18.894,16.679a11.441,11.441,0,0,1-2.5,3.676,9.751,9.751,0,0,1-3.517,2.194,12.177,12.177,0,0,1-4.143.713,11.838,11.838,0,0,1-4.028-.713,9.751,9.751,0,0,1-3.517-2.194,11.409,11.409,0,0,1-2.5-3.676,14.251,14.251,0,0,1,0-10.315,10.766,10.766,0,0,1,2.5-3.62,9.487,9.487,0,0,1,3.517-2.085,12.681,12.681,0,0,1,8.227.054,9.7,9.7,0,0,1,3.575,2.194,10.8,10.8,0,0,1,2.44,3.676,13.143,13.143,0,0,1,.908,5.048A12.427,12.427,0,0,1,811.649,209.262Z" transform="translate(-627.704 -100.038)"/><path class="c" d="M90.648,176.11l-10.1,21.252-2.263,4.764L66.1,176.11H45.434l28.36,54.873c-.042-.08-.075-.166-.113-.248.045.1.085.2.136.291l.038.071a5.112,5.112,0,0,0,9.152-.467l.538-.957,27.774-53.563Z" transform="translate(-19.421 -100.577)"/><path class="c" d="M445.194,229.7a2.587,2.587,0,0,1,.181.315l-24.194-52.243h0a2.568,2.568,0,0,0-4.8,0l-24.162,52.165.009.015a2.55,2.55,0,0,0-.3,1.185,2.578,2.578,0,0,0,2.578,2.578h12.8a2.577,2.577,0,0,0,2.358-1.543l9.158-20.707,9.082,20.722.017.011a2.574,2.574,0,0,0,2.34,1.516h12.791a2.578,2.578,0,0,0,2.14-4.015Z" transform="translate(-309.017 -100.577)"/><path class="c" d="M1455.8,274.819a26.231,26.231,0,0,0-6.853-9.025,30.577,30.577,0,0,0-10.324-5.667,40.678,40.678,0,0,0-12.8-1.94h-18.223a2.578,2.578,0,0,0-2.578,2.578V313.2a2.578,2.578,0,0,0,2.578,2.578h18.22a38.425,38.425,0,0,0,12.807-2.159,31.573,31.573,0,0,0,10.324-5.888,27.071,27.071,0,0,0,6.853-9.111,29.795,29.795,0,0,0,0-23.8ZM1441.1,293.3a14.279,14.279,0,0,1-3.518,4.842,15.31,15.31,0,0,1-5.275,3.007,20.217,20.217,0,0,1-6.583,1.046h-5.14v-30.43h5.14a22.964,22.964,0,0,1,6.583.915,14.9,14.9,0,0,1,5.275,2.745,13.09,13.09,0,0,1,3.518,4.666,15.835,15.835,0,0,1,1.308,6.672A15.662,15.662,0,0,1,1441.1,293.3Z" transform="translate(-1155.756 -169.176)"/><path class="c" d="M1834.99,174.088a24.662,24.662,0,0,0-5.4-8.29,25.66,25.66,0,0,0-8.576-5.656,29.372,29.372,0,0,0-11.3-2.085,32.206,32.206,0,0,0-11.925,2.194,30.08,30.08,0,0,0-9.654,6.042,28.714,28.714,0,0,0-6.417,31.958,26.6,26.6,0,0,0,6.589,9.117,31.374,31.374,0,0,0,10.107,6.042,36.38,36.38,0,0,0,12.88,2.265,37.356,37.356,0,0,0,20.587-6.051,2.557,2.557,0,0,0,.547-3.947,2.621,2.621,0,0,1,.207.251l-4.49-8.187-.01,0a2.563,2.563,0,0,0-3.294-1.24l-.042.02a31.379,31.379,0,0,1-5.089,2.06,26.589,26.589,0,0,1-7.723,1.1,18.262,18.262,0,0,1-7.892-1.54,10.055,10.055,0,0,1-4.827-4.724h34.342a2.578,2.578,0,0,0,2.578-2.578,2.564,2.564,0,0,1-.047.463c.143-.7.27-1.434.378-2.22a36.511,36.511,0,0,0,.341-5A26.861,26.861,0,0,0,1834.99,174.088Zm-36.4,7.032a12.107,12.107,0,0,1,3.974-6.1,10.569,10.569,0,0,1,12.834.054,8,8,0,0,1,2.953,6.042Z" transform="translate(-1468.66 -85.488)"/><path class="c" d="M-62.2,612.819a26.232,26.232,0,0,0-6.853-9.025,30.577,30.577,0,0,0-10.324-5.667,40.679,40.679,0,0,0-12.8-1.94h-18.223a2.578,2.578,0,0,0-2.578,2.578V651.2a2.578,2.578,0,0,0,2.578,2.578h18.22a38.425,38.425,0,0,0,12.807-2.159,31.575,31.575,0,0,0,10.324-5.888,27.072,27.072,0,0,0,6.853-9.111,27.717,27.717,0,0,0,2.48-11.856A27.953,27.953,0,0,0-62.2,612.819ZM-76.9,631.3a14.28,14.28,0,0,1-3.518,4.842,15.309,15.309,0,0,1-5.275,3.007,20.22,20.22,0,0,1-6.583,1.046h-5.14v-30.43h5.14a22.967,22.967,0,0,1,6.583.915,14.9,14.9,0,0,1,5.275,2.745,13.09,13.09,0,0,1,3.518,4.666,15.835,15.835,0,0,1,1.308,6.672A15.663,15.663,0,0,1-76.9,631.3Z" transform="translate(112.984 -451.676)"/><path class="c" d="M1852.879,571.646h-17.967a.914.914,0,0,0-.775,1.007v72.735a.914.914,0,0,0,.775,1.007h17.967a.914.914,0,0,0,.775-1.007V572.653A.914.914,0,0,0,1852.879,571.646Z" transform="translate(-1514.413 -431.164)"/><path class="c" d="M1462.543,692.583a27.477,27.477,0,0,0-5.618-9.052,25.26,25.26,0,0,0-8.622-5.924,27.771,27.771,0,0,0-10.951-2.141,23.361,23.361,0,0,0-9.532,1.81,17.338,17.338,0,0,0-5.289,3.6c-.01.01-.059.049-.071.06a.8.8,0,0,1-1.334-.6v-2.88q0-.328,0-.655v-.391a.837.837,0,0,0-.186-.567.789.789,0,0,0-.589-.273H1406a.775.775,0,0,0-.775.775h0v70.522a.775.775,0,0,0,.775.775h16.03l.025,0,.024,0a.775.775,0,0,0,.751-.773s0-17.25,0-17.258a.775.775,0,0,1,.775-.775.787.787,0,0,1,.492.178q5.032,3.944,13.257,3.944a27.808,27.808,0,0,0,10.951-2.138,24.917,24.917,0,0,0,8.622-5.98,27.949,27.949,0,0,0,5.618-9.164,32.043,32.043,0,0,0,2.043-11.575A31.626,31.626,0,0,0,1462.543,692.583Zm-18.894,16.679a11.443,11.443,0,0,1-2.5,3.676,9.748,9.748,0,0,1-3.517,2.194,12.175,12.175,0,0,1-4.143.713,11.837,11.837,0,0,1-4.028-.713,9.748,9.748,0,0,1-3.517-2.194,11.411,11.411,0,0,1-2.5-3.676,14.253,14.253,0,0,1,0-10.315,10.768,10.768,0,0,1,2.5-3.62,9.486,9.486,0,0,1,3.517-2.085,12.682,12.682,0,0,1,8.227.054,9.7,9.7,0,0,1,3.575,2.194,10.8,10.8,0,0,1,2.44,3.676,13.143,13.143,0,0,1,.908,5.048A12.429,12.429,0,0,1,1443.649,709.262Z" transform="translate(-1155.928 -517.937)"/><path class="c" d="M722.648,676.11l-10.1,21.252-2.263,4.764L698.1,676.11h-20.67l28.36,54.873c-.042-.08-.075-.166-.113-.248.045.1.085.2.136.291l.038.071a5.112,5.112,0,0,0,9.152-.467l.538-.957,27.774-53.563Z" transform="translate(-547.645 -518.475)"/><path class="c" d="M1077.195,729.7a2.624,2.624,0,0,1,.181.315l-24.194-52.243h0a2.568,2.568,0,0,0-4.8,0l-24.162,52.165.009.015a2.549,2.549,0,0,0-.3,1.185,2.578,2.578,0,0,0,2.578,2.578h12.8a2.576,2.576,0,0,0,2.358-1.543l0,.017,9.162-20.724,9.082,20.722.017.011a2.575,2.575,0,0,0,2.34,1.516h12.791a2.578,2.578,0,0,0,2.141-4.015Z" transform="translate(-837.241 -518.475)"/><path class="c" d="M329.473,614.97a25.771,25.771,0,0,0-5.636-8.661,26.807,26.807,0,0,0-8.959-5.908,30.681,30.681,0,0,0-11.8-2.178,33.643,33.643,0,0,0-12.458,2.292,31.42,31.42,0,0,0-10.085,6.312,30,30,0,0,0-6.7,33.385,27.786,27.786,0,0,0,6.883,9.524,32.777,32.777,0,0,0,10.559,6.312,38.008,38.008,0,0,0,13.455,2.366,39.024,39.024,0,0,0,21.506-6.322,2.671,2.671,0,0,0,.571-4.123,2.717,2.717,0,0,1,.216.262l-4.691-8.552-.01,0a2.678,2.678,0,0,0-3.442-1.3l-.043.021a32.792,32.792,0,0,1-5.317,2.152,27.777,27.777,0,0,1-8.068,1.148A19.078,19.078,0,0,1,297.2,640.1a10.5,10.5,0,0,1-5.043-4.935H328.02l.014,0a2.693,2.693,0,0,0,2.693-2.693,2.7,2.7,0,0,1-.049.484q.224-1.09.394-2.319a38.144,38.144,0,0,0,.356-5.225A28.065,28.065,0,0,0,329.473,614.97Zm-38.026,7.346a12.65,12.65,0,0,1,4.152-6.369,11.041,11.041,0,0,1,13.407.057,8.355,8.355,0,0,1,3.084,6.312Z" transform="translate(-208.279 -453.377)"/></g><g transform="translate(738.701)"><path class="c" d="M-3.2-227.181a26.232,26.232,0,0,0-6.853-9.025,30.578,30.578,0,0,0-10.324-5.667,40.678,40.678,0,0,0-12.8-1.94H-51.406a2.578,2.578,0,0,0-2.578,2.578V-188.8a2.578,2.578,0,0,0,2.578,2.578h18.22a38.425,38.425,0,0,0,12.807-2.159,31.574,31.574,0,0,0,10.324-5.888A27.073,27.073,0,0,0-3.2-203.378a27.717,27.717,0,0,0,2.48-11.856A27.954,27.954,0,0,0-3.2-227.181ZM-17.9-208.7a14.278,14.278,0,0,1-3.518,4.842,15.309,15.309,0,0,1-5.275,3.007,20.218,20.218,0,0,1-6.583,1.046h-5.14v-30.43h5.14a22.966,22.966,0,0,1,6.583.915,14.9,14.9,0,0,1,5.275,2.745,13.09,13.09,0,0,1,3.518,4.666,15.835,15.835,0,0,1,1.308,6.672A15.663,15.663,0,0,1-17.9-208.7Z" transform="translate(63.672 250.394)"/><rect class="c" width="19.518" height="57.578" rx="4.722" transform="translate(318.082 9.869)"/><path class="c" d="M1462.543-227.417a27.476,27.476,0,0,0-5.618-9.052,25.259,25.259,0,0,0-8.622-5.924,27.769,27.769,0,0,0-10.951-2.141,23.361,23.361,0,0,0-9.532,1.81,17.338,17.338,0,0,0-5.289,3.6c-.01.01-.059.049-.071.06a.8.8,0,0,1-.531.2.8.8,0,0,1-.8-.8v-2.88q0-.328,0-.655v-.391a.837.837,0,0,0-.186-.567.79.79,0,0,0-.589-.273H1406a.775.775,0,0,0-.775.775h0v70.522a.775.775,0,0,0,.775.775h16.03l.025,0,.024,0a.775.775,0,0,0,.751-.773s0-17.25,0-17.258a.775.775,0,0,1,.775-.775.787.787,0,0,1,.492.178q5.032,3.945,13.257,3.944a27.809,27.809,0,0,0,10.951-2.138,24.919,24.919,0,0,0,8.622-5.98,27.949,27.949,0,0,0,5.618-9.164,32.042,32.042,0,0,0,2.043-11.575A31.627,31.627,0,0,0,1462.543-227.417Zm-18.894,16.679a11.443,11.443,0,0,1-2.5,3.676,9.75,9.75,0,0,1-3.517,2.194,12.176,12.176,0,0,1-4.143.713,11.838,11.838,0,0,1-4.028-.713,9.749,9.749,0,0,1-3.517-2.194,11.411,11.411,0,0,1-2.5-3.676,12.733,12.733,0,0,1-.966-5.157,12.74,12.74,0,0,1,.966-5.157,10.768,10.768,0,0,1,2.5-3.62,9.486,9.486,0,0,1,3.517-2.085,12.682,12.682,0,0,1,4.028-.659,12.71,12.71,0,0,1,4.2.713,9.7,9.7,0,0,1,3.575,2.194,10.8,10.8,0,0,1,2.44,3.676,13.143,13.143,0,0,1,.908,5.048A12.429,12.429,0,0,1,1443.649-210.738Z" transform="translate(-1155.928 250.996)"/><path class="c" d="M722.648-213.89l-10.1,21.252-2.263,4.764L698.1-213.89h-20.67l28.36,54.873c-.042-.08-.075-.166-.113-.248.045.1.085.2.136.291l.038.071a5.112,5.112,0,0,0,4.51,2.614,5.112,5.112,0,0,0,4.642-3.081l.538-.957,27.774-53.563Z" transform="translate(-547.645 225.384)"/><path class="c" d="M1087.194-230.3a2.6,2.6,0,0,1,.181.315l-24.194-52.243h0a2.573,2.573,0,0,0-2.4-1.659,2.573,2.573,0,0,0-2.4,1.658l-24.162,52.165.009.015a2.549,2.549,0,0,0-.3,1.185,2.578,2.578,0,0,0,2.578,2.578h12.8a2.577,2.577,0,0,0,2.359-1.543l9.158-20.707,9.082,20.722.017.011a2.574,2.574,0,0,0,2.34,1.516h12.791a2.578,2.578,0,0,0,2.578-2.578A2.565,2.565,0,0,0,1087.194-230.3Z" transform="translate(-845.599 283.89)"/><path class="c" d="M375.99-227.912a24.666,24.666,0,0,0-5.4-8.29,25.661,25.661,0,0,0-8.576-5.656,29.371,29.371,0,0,0-11.3-2.085,32.206,32.206,0,0,0-11.925,2.194,30.079,30.079,0,0,0-9.654,6.042,27.733,27.733,0,0,0-6.417,9.117,27.922,27.922,0,0,0-2.328,11.42,27.922,27.922,0,0,0,2.328,11.42,26.6,26.6,0,0,0,6.589,9.117,31.372,31.372,0,0,0,10.107,6.042,36.379,36.379,0,0,0,12.88,2.265,37.356,37.356,0,0,0,20.586-6.051,2.568,2.568,0,0,0,1.243-2.2,2.561,2.561,0,0,0-.7-1.751,2.613,2.613,0,0,1,.207.251l-4.49-8.187-.01,0a2.57,2.57,0,0,0-2.3-1.439,2.567,2.567,0,0,0-.993.2l-.041.02a31.38,31.38,0,0,1-5.089,2.06,26.59,26.59,0,0,1-7.723,1.1,18.262,18.262,0,0,1-7.892-1.54,10.054,10.054,0,0,1-4.827-4.724h34.342a2.578,2.578,0,0,0,2.578-2.578,2.581,2.581,0,0,1-.047.463c.143-.7.27-1.434.378-2.22a36.52,36.52,0,0,0,.341-5A26.862,26.862,0,0,0,375.99-227.912Zm-36.4,7.032a12.109,12.109,0,0,1,3.974-6.1,10.007,10.007,0,0,1,6.361-2.144,10.014,10.014,0,0,1,6.473,2.2,8,8,0,0,1,2.953,6.042Z" transform="translate(-249.233 250.502)"/><path class="c" d="M1220.879,136.646h-17.967c-.428,0-.775.473-.775,1.057v76.375c0,.584.347,1.057.775,1.057h17.967c.428,0,.775-.473.775-1.057V137.7C1221.655,137.119,1221.307,136.646,1220.879,136.646Z" transform="translate(-986.19 -67.593)"/><path class="c" d="M830.543,192.583a27.478,27.478,0,0,0-5.618-9.052,25.26,25.26,0,0,0-8.622-5.924,27.769,27.769,0,0,0-10.951-2.141,23.362,23.362,0,0,0-9.532,1.81,17.339,17.339,0,0,0-5.289,3.6c-.01.01-.059.049-.071.06a.8.8,0,0,1-1.334-.6v-2.88q0-.328,0-.655v-.391a.837.837,0,0,0-.186-.567.789.789,0,0,0-.589-.273H774a.775.775,0,0,0-.775.775h0v70.522a.775.775,0,0,0,.775.775h16.03l.025,0,.024,0a.775.775,0,0,0,.751-.773s0-17.25,0-17.258a.775.775,0,0,1,.775-.775.787.787,0,0,1,.492.178q5.032,3.945,13.257,3.944a27.809,27.809,0,0,0,10.951-2.138,24.92,24.92,0,0,0,8.622-5.98,27.951,27.951,0,0,0,5.618-9.164,32.041,32.041,0,0,0,2.043-11.575A31.625,31.625,0,0,0,830.543,192.583Zm-18.894,16.679a11.441,11.441,0,0,1-2.5,3.676,9.751,9.751,0,0,1-3.517,2.194,12.177,12.177,0,0,1-4.143.713,11.838,11.838,0,0,1-4.028-.713,9.751,9.751,0,0,1-3.517-2.194,11.409,11.409,0,0,1-2.5-3.676,14.251,14.251,0,0,1,0-10.315,10.766,10.766,0,0,1,2.5-3.62,9.487,9.487,0,0,1,3.517-2.085,12.681,12.681,0,0,1,8.227.054,9.7,9.7,0,0,1,3.575,2.194,10.8,10.8,0,0,1,2.44,3.676,13.143,13.143,0,0,1,.908,5.048A12.427,12.427,0,0,1,811.649,209.262Z" transform="translate(-627.704 -100.038)"/><path class="c" d="M90.648,176.11l-10.1,21.252-2.263,4.764L66.1,176.11H45.434l28.36,54.873c-.042-.08-.075-.166-.113-.248.045.1.085.2.136.291l.038.071a5.112,5.112,0,0,0,9.152-.467l.538-.957,27.774-53.563Z" transform="translate(-19.421 -100.577)"/><path class="c" d="M445.194,229.7a2.587,2.587,0,0,1,.181.315l-24.194-52.243h0a2.568,2.568,0,0,0-4.8,0l-24.162,52.165.009.015a2.55,2.55,0,0,0-.3,1.185,2.578,2.578,0,0,0,2.578,2.578h12.8a2.577,2.577,0,0,0,2.358-1.543l9.158-20.707,9.082,20.722.017.011a2.574,2.574,0,0,0,2.34,1.516h12.791a2.578,2.578,0,0,0,2.14-4.015Z" transform="translate(-309.017 -100.577)"/><path class="c" d="M1455.8,274.819a26.231,26.231,0,0,0-6.853-9.025,30.577,30.577,0,0,0-10.324-5.667,40.678,40.678,0,0,0-12.8-1.94h-18.223a2.578,2.578,0,0,0-2.578,2.578V313.2a2.578,2.578,0,0,0,2.578,2.578h18.22a38.425,38.425,0,0,0,12.807-2.159,31.573,31.573,0,0,0,10.324-5.888,27.071,27.071,0,0,0,6.853-9.111,29.795,29.795,0,0,0,0-23.8ZM1441.1,293.3a14.279,14.279,0,0,1-3.518,4.842,15.31,15.31,0,0,1-5.275,3.007,20.217,20.217,0,0,1-6.583,1.046h-5.14v-30.43h5.14a22.964,22.964,0,0,1,6.583.915,14.9,14.9,0,0,1,5.275,2.745,13.09,13.09,0,0,1,3.518,4.666,15.835,15.835,0,0,1,1.308,6.672A15.662,15.662,0,0,1,1441.1,293.3Z" transform="translate(-1155.756 -169.176)"/><path class="c" d="M1834.99,174.088a24.662,24.662,0,0,0-5.4-8.29,25.66,25.66,0,0,0-8.576-5.656,29.372,29.372,0,0,0-11.3-2.085,32.206,32.206,0,0,0-11.925,2.194,30.08,30.08,0,0,0-9.654,6.042,28.714,28.714,0,0,0-6.417,31.958,26.6,26.6,0,0,0,6.589,9.117,31.374,31.374,0,0,0,10.107,6.042,36.38,36.38,0,0,0,12.88,2.265,37.356,37.356,0,0,0,20.587-6.051,2.557,2.557,0,0,0,.547-3.947,2.621,2.621,0,0,1,.207.251l-4.49-8.187-.01,0a2.563,2.563,0,0,0-3.294-1.24l-.042.02a31.379,31.379,0,0,1-5.089,2.06,26.589,26.589,0,0,1-7.723,1.1,18.262,18.262,0,0,1-7.892-1.54,10.055,10.055,0,0,1-4.827-4.724h34.342a2.578,2.578,0,0,0,2.578-2.578,2.564,2.564,0,0,1-.047.463c.143-.7.27-1.434.378-2.22a36.511,36.511,0,0,0,.341-5A26.861,26.861,0,0,0,1834.99,174.088Zm-36.4,7.032a12.107,12.107,0,0,1,3.974-6.1,10.569,10.569,0,0,1,12.834.054,8,8,0,0,1,2.953,6.042Z" transform="translate(-1468.66 -85.488)"/><path class="c" d="M-62.2,612.819a26.232,26.232,0,0,0-6.853-9.025,30.577,30.577,0,0,0-10.324-5.667,40.679,40.679,0,0,0-12.8-1.94h-18.223a2.578,2.578,0,0,0-2.578,2.578V651.2a2.578,2.578,0,0,0,2.578,2.578h18.22a38.425,38.425,0,0,0,12.807-2.159,31.575,31.575,0,0,0,10.324-5.888,27.072,27.072,0,0,0,6.853-9.111,27.717,27.717,0,0,0,2.48-11.856A27.953,27.953,0,0,0-62.2,612.819ZM-76.9,631.3a14.28,14.28,0,0,1-3.518,4.842,15.309,15.309,0,0,1-5.275,3.007,20.22,20.22,0,0,1-6.583,1.046h-5.14v-30.43h5.14a22.967,22.967,0,0,1,6.583.915,14.9,14.9,0,0,1,5.275,2.745,13.09,13.09,0,0,1,3.518,4.666,15.835,15.835,0,0,1,1.308,6.672A15.663,15.663,0,0,1-76.9,631.3Z" transform="translate(112.984 -451.676)"/><path class="c" d="M1852.879,571.646h-17.967a.914.914,0,0,0-.775,1.007v72.735a.914.914,0,0,0,.775,1.007h17.967a.914.914,0,0,0,.775-1.007V572.653A.914.914,0,0,0,1852.879,571.646Z" transform="translate(-1514.413 -431.164)"/><path class="c" d="M1462.543,692.583a27.477,27.477,0,0,0-5.618-9.052,25.26,25.26,0,0,0-8.622-5.924,27.771,27.771,0,0,0-10.951-2.141,23.361,23.361,0,0,0-9.532,1.81,17.338,17.338,0,0,0-5.289,3.6c-.01.01-.059.049-.071.06a.8.8,0,0,1-1.334-.6v-2.88q0-.328,0-.655v-.391a.837.837,0,0,0-.186-.567.789.789,0,0,0-.589-.273H1406a.775.775,0,0,0-.775.775h0v70.522a.775.775,0,0,0,.775.775h16.03l.025,0,.024,0a.775.775,0,0,0,.751-.773s0-17.25,0-17.258a.775.775,0,0,1,.775-.775.787.787,0,0,1,.492.178q5.032,3.944,13.257,3.944a27.808,27.808,0,0,0,10.951-2.138,24.917,24.917,0,0,0,8.622-5.98,27.949,27.949,0,0,0,5.618-9.164,32.043,32.043,0,0,0,2.043-11.575A31.626,31.626,0,0,0,1462.543,692.583Zm-18.894,16.679a11.443,11.443,0,0,1-2.5,3.676,9.748,9.748,0,0,1-3.517,2.194,12.175,12.175,0,0,1-4.143.713,11.837,11.837,0,0,1-4.028-.713,9.748,9.748,0,0,1-3.517-2.194,11.411,11.411,0,0,1-2.5-3.676,14.253,14.253,0,0,1,0-10.315,10.768,10.768,0,0,1,2.5-3.62,9.486,9.486,0,0,1,3.517-2.085,12.682,12.682,0,0,1,8.227.054,9.7,9.7,0,0,1,3.575,2.194,10.8,10.8,0,0,1,2.44,3.676,13.143,13.143,0,0,1,.908,5.048A12.429,12.429,0,0,1,1443.649,709.262Z" transform="translate(-1155.928 -517.937)"/><path class="c" d="M722.648,676.11l-10.1,21.252-2.263,4.764L698.1,676.11h-20.67l28.36,54.873c-.042-.08-.075-.166-.113-.248.045.1.085.2.136.291l.038.071a5.112,5.112,0,0,0,9.152-.467l.538-.957,27.774-53.563Z" transform="translate(-547.645 -518.475)"/><path class="c" d="M1077.195,729.7a2.624,2.624,0,0,1,.181.315l-24.194-52.243h0a2.568,2.568,0,0,0-4.8,0l-24.162,52.165.009.015a2.549,2.549,0,0,0-.3,1.185,2.578,2.578,0,0,0,2.578,2.578h12.8a2.576,2.576,0,0,0,2.358-1.543l0,.017,9.162-20.724,9.082,20.722.017.011a2.575,2.575,0,0,0,2.34,1.516h12.791a2.578,2.578,0,0,0,2.141-4.015Z" transform="translate(-837.241 -518.475)"/><path class="c" d="M329.473,614.97a25.771,25.771,0,0,0-5.636-8.661,26.807,26.807,0,0,0-8.959-5.908,30.681,30.681,0,0,0-11.8-2.178,33.643,33.643,0,0,0-12.458,2.292,31.42,31.42,0,0,0-10.085,6.312,30,30,0,0,0-6.7,33.385,27.786,27.786,0,0,0,6.883,9.524,32.777,32.777,0,0,0,10.559,6.312,38.008,38.008,0,0,0,13.455,2.366,39.024,39.024,0,0,0,21.506-6.322,2.671,2.671,0,0,0,.571-4.123,2.717,2.717,0,0,1,.216.262l-4.691-8.552-.01,0a2.678,2.678,0,0,0-3.442-1.3l-.043.021a32.792,32.792,0,0,1-5.317,2.152,27.777,27.777,0,0,1-8.068,1.148A19.078,19.078,0,0,1,297.2,640.1a10.5,10.5,0,0,1-5.043-4.935H328.02l.014,0a2.693,2.693,0,0,0,2.693-2.693,2.7,2.7,0,0,1-.049.484q.224-1.09.394-2.319a38.144,38.144,0,0,0,.356-5.225A28.065,28.065,0,0,0,329.473,614.97Zm-38.026,7.346a12.65,12.65,0,0,1,4.152-6.369,11.041,11.041,0,0,1,13.407.057,8.355,8.355,0,0,1,3.084,6.312Z" transform="translate(-208.279 -453.377)"/></g></g><g transform="translate(0 216.305)"><path class="c" d="M-3.2-227.181a26.232,26.232,0,0,0-6.853-9.025,30.578,30.578,0,0,0-10.324-5.667,40.678,40.678,0,0,0-12.8-1.94H-51.406a2.578,2.578,0,0,0-2.578,2.578V-188.8a2.578,2.578,0,0,0,2.578,2.578h18.22a38.425,38.425,0,0,0,12.807-2.159,31.574,31.574,0,0,0,10.324-5.888A27.073,27.073,0,0,0-3.2-203.378a27.717,27.717,0,0,0,2.48-11.856A27.954,27.954,0,0,0-3.2-227.181ZM-17.9-208.7a14.278,14.278,0,0,1-3.518,4.842,15.309,15.309,0,0,1-5.275,3.007,20.218,20.218,0,0,1-6.583,1.046h-5.14v-30.43h5.14a22.966,22.966,0,0,1,6.583.915,14.9,14.9,0,0,1,5.275,2.745,13.09,13.09,0,0,1,3.518,4.666,15.835,15.835,0,0,1,1.308,6.672A15.663,15.663,0,0,1-17.9-208.7Z" transform="translate(96.286 250.394)"/><rect class="c" width="19.518" height="57.578" rx="4.722" transform="translate(350.696 9.869)"/><path class="c" d="M1462.543-227.417a27.476,27.476,0,0,0-5.618-9.052,25.259,25.259,0,0,0-8.622-5.924,27.769,27.769,0,0,0-10.951-2.141,23.361,23.361,0,0,0-9.532,1.81,17.338,17.338,0,0,0-5.289,3.6c-.01.01-.059.049-.071.06a.8.8,0,0,1-.531.2.8.8,0,0,1-.8-.8v-2.88q0-.328,0-.655v-.391a.837.837,0,0,0-.186-.567.79.79,0,0,0-.589-.273H1406a.775.775,0,0,0-.775.775h0v70.522a.775.775,0,0,0,.775.775h16.03l.025,0,.024,0a.775.775,0,0,0,.751-.773s0-17.25,0-17.258a.775.775,0,0,1,.775-.775.787.787,0,0,1,.492.178q5.032,3.945,13.257,3.944a27.809,27.809,0,0,0,10.951-2.138,24.919,24.919,0,0,0,8.622-5.98,27.949,27.949,0,0,0,5.618-9.164,32.042,32.042,0,0,0,2.043-11.575A31.627,31.627,0,0,0,1462.543-227.417Zm-18.894,16.679a11.443,11.443,0,0,1-2.5,3.676,9.75,9.75,0,0,1-3.517,2.194,12.176,12.176,0,0,1-4.143.713,11.838,11.838,0,0,1-4.028-.713,9.749,9.749,0,0,1-3.517-2.194,11.411,11.411,0,0,1-2.5-3.676,12.733,12.733,0,0,1-.966-5.157,12.74,12.74,0,0,1,.966-5.157,10.768,10.768,0,0,1,2.5-3.62,9.486,9.486,0,0,1,3.517-2.085,12.682,12.682,0,0,1,4.028-.659,12.71,12.71,0,0,1,4.2.713,9.7,9.7,0,0,1,3.575,2.194,10.8,10.8,0,0,1,2.44,3.676,13.143,13.143,0,0,1,.908,5.048A12.429,12.429,0,0,1,1443.649-210.738Z" transform="translate(-1123.314 250.996)"/><path class="c" d="M722.648-213.89l-10.1,21.252-2.263,4.764L698.1-213.89h-20.67l28.36,54.873c-.042-.08-.075-.166-.113-.248.045.1.085.2.136.291l.038.071a5.112,5.112,0,0,0,4.51,2.614,5.112,5.112,0,0,0,4.642-3.081l.538-.957,27.774-53.563Z" transform="translate(-515.031 225.384)"/><path class="c" d="M1087.194-230.3a2.6,2.6,0,0,1,.181.315l-24.194-52.243h0a2.573,2.573,0,0,0-2.4-1.659,2.573,2.573,0,0,0-2.4,1.658l-24.162,52.165.009.015a2.549,2.549,0,0,0-.3,1.185,2.578,2.578,0,0,0,2.578,2.578h12.8a2.577,2.577,0,0,0,2.359-1.543l9.158-20.707,9.082,20.722.017.011a2.574,2.574,0,0,0,2.34,1.516h12.791a2.578,2.578,0,0,0,2.578-2.578A2.565,2.565,0,0,0,1087.194-230.3Z" transform="translate(-812.985 283.89)"/><path class="c" d="M375.99-227.912a24.666,24.666,0,0,0-5.4-8.29,25.661,25.661,0,0,0-8.576-5.656,29.371,29.371,0,0,0-11.3-2.085,32.206,32.206,0,0,0-11.925,2.194,30.079,30.079,0,0,0-9.654,6.042,27.733,27.733,0,0,0-6.417,9.117,27.922,27.922,0,0,0-2.328,11.42,27.922,27.922,0,0,0,2.328,11.42,26.6,26.6,0,0,0,6.589,9.117,31.372,31.372,0,0,0,10.107,6.042,36.379,36.379,0,0,0,12.88,2.265,37.356,37.356,0,0,0,20.586-6.051,2.568,2.568,0,0,0,1.243-2.2,2.561,2.561,0,0,0-.7-1.751,2.613,2.613,0,0,1,.207.251l-4.49-8.187-.01,0a2.57,2.57,0,0,0-2.3-1.439,2.567,2.567,0,0,0-.993.2l-.041.02a31.38,31.38,0,0,1-5.089,2.06,26.59,26.59,0,0,1-7.723,1.1,18.262,18.262,0,0,1-7.892-1.54,10.054,10.054,0,0,1-4.827-4.724h34.342a2.578,2.578,0,0,0,2.578-2.578,2.581,2.581,0,0,1-.047.463c.143-.7.27-1.434.378-2.22a36.52,36.52,0,0,0,.341-5A26.862,26.862,0,0,0,375.99-227.912Zm-36.4,7.032a12.109,12.109,0,0,1,3.974-6.1,10.007,10.007,0,0,1,6.361-2.144,10.014,10.014,0,0,1,6.473,2.2,8,8,0,0,1,2.953,6.042Z" transform="translate(-216.619 250.502)"/><path class="c" d="M1220.879,136.646h-17.967c-.428,0-.775.473-.775,1.057v76.375c0,.584.347,1.057.775,1.057h17.967c.428,0,.775-.473.775-1.057V137.7C1221.655,137.119,1221.307,136.646,1220.879,136.646Z" transform="translate(-953.576 -67.593)"/><path class="c" d="M830.543,192.583a27.478,27.478,0,0,0-5.618-9.052,25.26,25.26,0,0,0-8.622-5.924,27.769,27.769,0,0,0-10.951-2.141,23.362,23.362,0,0,0-9.532,1.81,17.339,17.339,0,0,0-5.289,3.6c-.01.01-.059.049-.071.06a.8.8,0,0,1-1.334-.6v-2.88q0-.328,0-.655v-.391a.837.837,0,0,0-.186-.567.789.789,0,0,0-.589-.273H774a.775.775,0,0,0-.775.775h0v70.522a.775.775,0,0,0,.775.775h16.03l.025,0,.024,0a.775.775,0,0,0,.751-.773s0-17.25,0-17.258a.775.775,0,0,1,.775-.775.787.787,0,0,1,.492.178q5.032,3.945,13.257,3.944a27.809,27.809,0,0,0,10.951-2.138,24.92,24.92,0,0,0,8.622-5.98,27.951,27.951,0,0,0,5.618-9.164,32.041,32.041,0,0,0,2.043-11.575A31.625,31.625,0,0,0,830.543,192.583Zm-18.894,16.679a11.441,11.441,0,0,1-2.5,3.676,9.751,9.751,0,0,1-3.517,2.194,12.177,12.177,0,0,1-4.143.713,11.838,11.838,0,0,1-4.028-.713,9.751,9.751,0,0,1-3.517-2.194,11.409,11.409,0,0,1-2.5-3.676,14.251,14.251,0,0,1,0-10.315,10.766,10.766,0,0,1,2.5-3.62,9.487,9.487,0,0,1,3.517-2.085,12.681,12.681,0,0,1,8.227.054,9.7,9.7,0,0,1,3.575,2.194,10.8,10.8,0,0,1,2.44,3.676,13.143,13.143,0,0,1,.908,5.048A12.427,12.427,0,0,1,811.649,209.262Z" transform="translate(-595.09 -100.038)"/><path class="c" d="M90.648,176.11l-10.1,21.252-2.263,4.764L66.1,176.11H45.434l28.36,54.873c-.042-.08-.075-.166-.113-.248.045.1.085.2.136.291l.038.071a5.112,5.112,0,0,0,9.152-.467l.538-.957,27.774-53.563Z" transform="translate(13.193 -100.577)"/><path class="c" d="M445.194,229.7a2.587,2.587,0,0,1,.181.315l-24.194-52.243h0a2.568,2.568,0,0,0-4.8,0l-24.162,52.165.009.015a2.55,2.55,0,0,0-.3,1.185,2.578,2.578,0,0,0,2.578,2.578h12.8a2.577,2.577,0,0,0,2.358-1.543l9.158-20.707,9.082,20.722.017.011a2.574,2.574,0,0,0,2.34,1.516h12.791a2.578,2.578,0,0,0,2.14-4.015Z" transform="translate(-276.403 -100.577)"/><path class="c" d="M-256.01,192.088a24.666,24.666,0,0,0-5.4-8.29,25.66,25.66,0,0,0-8.576-5.656,29.371,29.371,0,0,0-11.3-2.085,32.205,32.205,0,0,0-11.925,2.194,30.079,30.079,0,0,0-9.654,6.042,27.733,27.733,0,0,0-6.417,9.117,27.922,27.922,0,0,0-2.328,11.42,27.922,27.922,0,0,0,2.328,11.42,26.6,26.6,0,0,0,6.588,9.117,31.374,31.374,0,0,0,10.107,6.042,36.38,36.38,0,0,0,12.88,2.265,37.356,37.356,0,0,0,20.586-6.051,2.568,2.568,0,0,0,1.242-2.2,2.561,2.561,0,0,0-.7-1.751,2.612,2.612,0,0,1,.207.251l-4.49-8.187-.01,0a2.57,2.57,0,0,0-2.3-1.439,2.567,2.567,0,0,0-.993.2l-.041.02a31.378,31.378,0,0,1-5.089,2.06,26.589,26.589,0,0,1-7.723,1.1,18.262,18.262,0,0,1-7.892-1.54,10.054,10.054,0,0,1-4.827-4.724h34.342a2.578,2.578,0,0,0,2.578-2.578,2.581,2.581,0,0,1-.047.463c.143-.7.27-1.434.377-2.22a36.515,36.515,0,0,0,.341-5A26.861,26.861,0,0,0-256.01,192.088Zm-36.4,7.032a12.109,12.109,0,0,1,3.974-6.1,10.007,10.007,0,0,1,6.361-2.144,10.014,10.014,0,0,1,6.473,2.2,8,8,0,0,1,2.953,6.042Z" transform="translate(311.605 -100.532)"/><path class="c" d="M1455.8,274.819a26.231,26.231,0,0,0-6.853-9.025,30.577,30.577,0,0,0-10.324-5.667,40.678,40.678,0,0,0-12.8-1.94h-18.223a2.578,2.578,0,0,0-2.578,2.578V313.2a2.578,2.578,0,0,0,2.578,2.578h18.22a38.425,38.425,0,0,0,12.807-2.159,31.573,31.573,0,0,0,10.324-5.888,27.071,27.071,0,0,0,6.853-9.111,29.795,29.795,0,0,0,0-23.8ZM1441.1,293.3a14.279,14.279,0,0,1-3.518,4.842,15.31,15.31,0,0,1-5.275,3.007,20.217,20.217,0,0,1-6.583,1.046h-5.14v-30.43h5.14a22.964,22.964,0,0,1,6.583.915,14.9,14.9,0,0,1,5.275,2.745,13.09,13.09,0,0,1,3.518,4.666,15.835,15.835,0,0,1,1.308,6.672A15.662,15.662,0,0,1,1441.1,293.3Z" transform="translate(-1123.141 -169.176)"/><path class="c" d="M1834.99,174.088a24.662,24.662,0,0,0-5.4-8.29,25.66,25.66,0,0,0-8.576-5.656,29.372,29.372,0,0,0-11.3-2.085,32.206,32.206,0,0,0-11.925,2.194,30.08,30.08,0,0,0-9.654,6.042,28.714,28.714,0,0,0-6.417,31.958,26.6,26.6,0,0,0,6.589,9.117,31.374,31.374,0,0,0,10.107,6.042,36.38,36.38,0,0,0,12.88,2.265,37.356,37.356,0,0,0,20.587-6.051,2.557,2.557,0,0,0,.547-3.947,2.621,2.621,0,0,1,.207.251l-4.49-8.187-.01,0a2.563,2.563,0,0,0-3.294-1.24l-.042.02a31.379,31.379,0,0,1-5.089,2.06,26.589,26.589,0,0,1-7.723,1.1,18.262,18.262,0,0,1-7.892-1.54,10.055,10.055,0,0,1-4.827-4.724h34.342a2.578,2.578,0,0,0,2.578-2.578,2.564,2.564,0,0,1-.047.463c.143-.7.27-1.434.378-2.22a36.511,36.511,0,0,0,.341-5A26.861,26.861,0,0,0,1834.99,174.088Zm-36.4,7.032a12.107,12.107,0,0,1,3.974-6.1,10.569,10.569,0,0,1,12.834.054,8,8,0,0,1,2.953,6.042Z" transform="translate(-1436.046 -85.488)"/><path class="c" d="M-62.2,612.819a26.232,26.232,0,0,0-6.853-9.025,30.577,30.577,0,0,0-10.324-5.667,40.679,40.679,0,0,0-12.8-1.94h-18.223a2.578,2.578,0,0,0-2.578,2.578V651.2a2.578,2.578,0,0,0,2.578,2.578h18.22a38.425,38.425,0,0,0,12.807-2.159,31.575,31.575,0,0,0,10.324-5.888,27.072,27.072,0,0,0,6.853-9.111,27.717,27.717,0,0,0,2.48-11.856A27.953,27.953,0,0,0-62.2,612.819ZM-76.9,631.3a14.28,14.28,0,0,1-3.518,4.842,15.309,15.309,0,0,1-5.275,3.007,20.22,20.22,0,0,1-6.583,1.046h-5.14v-30.43h5.14a22.967,22.967,0,0,1,6.583.915,14.9,14.9,0,0,1,5.275,2.745,13.09,13.09,0,0,1,3.518,4.666,15.835,15.835,0,0,1,1.308,6.672A15.663,15.663,0,0,1-76.9,631.3Z" transform="translate(145.598 -451.676)"/><path class="c" d="M1852.879,571.646h-17.967a.914.914,0,0,0-.775,1.007v72.735a.914.914,0,0,0,.775,1.007h17.967a.914.914,0,0,0,.775-1.007V572.653A.914.914,0,0,0,1852.879,571.646Z" transform="translate(-1481.799 -431.164)"/><path class="c" d="M1462.543,692.583a27.477,27.477,0,0,0-5.618-9.052,25.26,25.26,0,0,0-8.622-5.924,27.771,27.771,0,0,0-10.951-2.141,23.361,23.361,0,0,0-9.532,1.81,17.338,17.338,0,0,0-5.289,3.6c-.01.01-.059.049-.071.06a.8.8,0,0,1-1.334-.6v-2.88q0-.328,0-.655v-.391a.837.837,0,0,0-.186-.567.789.789,0,0,0-.589-.273H1406a.775.775,0,0,0-.775.775h0v70.522a.775.775,0,0,0,.775.775h16.03l.025,0,.024,0a.775.775,0,0,0,.751-.773s0-17.25,0-17.258a.775.775,0,0,1,.775-.775.787.787,0,0,1,.492.178q5.032,3.944,13.257,3.944a27.808,27.808,0,0,0,10.951-2.138,24.917,24.917,0,0,0,8.622-5.98,27.949,27.949,0,0,0,5.618-9.164,32.043,32.043,0,0,0,2.043-11.575A31.626,31.626,0,0,0,1462.543,692.583Zm-18.894,16.679a11.443,11.443,0,0,1-2.5,3.676,9.748,9.748,0,0,1-3.517,2.194,12.175,12.175,0,0,1-4.143.713,11.837,11.837,0,0,1-4.028-.713,9.748,9.748,0,0,1-3.517-2.194,11.411,11.411,0,0,1-2.5-3.676,14.253,14.253,0,0,1,0-10.315,10.768,10.768,0,0,1,2.5-3.62,9.486,9.486,0,0,1,3.517-2.085,12.682,12.682,0,0,1,8.227.054,9.7,9.7,0,0,1,3.575,2.194,10.8,10.8,0,0,1,2.44,3.676,13.143,13.143,0,0,1,.908,5.048A12.429,12.429,0,0,1,1443.649,709.262Z" transform="translate(-1123.314 -517.937)"/><path class="c" d="M722.648,676.11l-10.1,21.252-2.263,4.764L698.1,676.11h-20.67l28.36,54.873c-.042-.08-.075-.166-.113-.248.045.1.085.2.136.291l.038.071a5.112,5.112,0,0,0,9.152-.467l.538-.957,27.774-53.563Z" transform="translate(-515.031 -518.475)"/><path class="c" d="M1077.195,729.7a2.624,2.624,0,0,1,.181.315l-24.194-52.243h0a2.568,2.568,0,0,0-4.8,0l-24.162,52.165.009.015a2.549,2.549,0,0,0-.3,1.185,2.578,2.578,0,0,0,2.578,2.578h12.8a2.576,2.576,0,0,0,2.358-1.543l0,.017,9.162-20.724,9.082,20.722.017.011a2.575,2.575,0,0,0,2.34,1.516h12.791a2.578,2.578,0,0,0,2.141-4.015Z" transform="translate(-804.627 -518.475)"/><path class="c" d="M329.473,614.97a25.771,25.771,0,0,0-5.636-8.661,26.807,26.807,0,0,0-8.959-5.908,30.681,30.681,0,0,0-11.8-2.178,33.643,33.643,0,0,0-12.458,2.292,31.42,31.42,0,0,0-10.085,6.312,30,30,0,0,0-6.7,33.385,27.786,27.786,0,0,0,6.883,9.524,32.777,32.777,0,0,0,10.559,6.312,38.008,38.008,0,0,0,13.455,2.366,39.024,39.024,0,0,0,21.506-6.322,2.671,2.671,0,0,0,.571-4.123,2.717,2.717,0,0,1,.216.262l-4.691-8.552-.01,0a2.678,2.678,0,0,0-3.442-1.3l-.043.021a32.792,32.792,0,0,1-5.317,2.152,27.777,27.777,0,0,1-8.068,1.148A19.078,19.078,0,0,1,297.2,640.1a10.5,10.5,0,0,1-5.043-4.935H328.02l.014,0a2.693,2.693,0,0,0,2.693-2.693,2.7,2.7,0,0,1-.049.484q.224-1.09.394-2.319a38.144,38.144,0,0,0,.356-5.225A28.065,28.065,0,0,0,329.473,614.97Zm-38.026,7.346a12.65,12.65,0,0,1,4.152-6.369,11.041,11.041,0,0,1,13.407.057,8.355,8.355,0,0,1,3.084,6.312Z" transform="translate(-175.665 -453.377)"/><g transform="translate(385.181)"><path class="c" d="M-3.2-227.181a26.232,26.232,0,0,0-6.853-9.025,30.578,30.578,0,0,0-10.324-5.667,40.678,40.678,0,0,0-12.8-1.94H-51.406a2.578,2.578,0,0,0-2.578,2.578V-188.8a2.578,2.578,0,0,0,2.578,2.578h18.22a38.425,38.425,0,0,0,12.807-2.159,31.574,31.574,0,0,0,10.324-5.888A27.073,27.073,0,0,0-3.2-203.378a27.717,27.717,0,0,0,2.48-11.856A27.954,27.954,0,0,0-3.2-227.181ZM-17.9-208.7a14.278,14.278,0,0,1-3.518,4.842,15.309,15.309,0,0,1-5.275,3.007,20.218,20.218,0,0,1-6.583,1.046h-5.14v-30.43h5.14a22.966,22.966,0,0,1,6.583.915,14.9,14.9,0,0,1,5.275,2.745,13.09,13.09,0,0,1,3.518,4.666,15.835,15.835,0,0,1,1.308,6.672A15.663,15.663,0,0,1-17.9-208.7Z" transform="translate(63.672 250.394)"/><rect class="c" width="19.518" height="57.578" rx="4.722" transform="translate(318.082 9.869)"/><path class="c" d="M1462.543-227.417a27.476,27.476,0,0,0-5.618-9.052,25.259,25.259,0,0,0-8.622-5.924,27.769,27.769,0,0,0-10.951-2.141,23.361,23.361,0,0,0-9.532,1.81,17.338,17.338,0,0,0-5.289,3.6c-.01.01-.059.049-.071.06a.8.8,0,0,1-.531.2.8.8,0,0,1-.8-.8v-2.88q0-.328,0-.655v-.391a.837.837,0,0,0-.186-.567.79.79,0,0,0-.589-.273H1406a.775.775,0,0,0-.775.775h0v70.522a.775.775,0,0,0,.775.775h16.03l.025,0,.024,0a.775.775,0,0,0,.751-.773s0-17.25,0-17.258a.775.775,0,0,1,.775-.775.787.787,0,0,1,.492.178q5.032,3.945,13.257,3.944a27.809,27.809,0,0,0,10.951-2.138,24.919,24.919,0,0,0,8.622-5.98,27.949,27.949,0,0,0,5.618-9.164,32.042,32.042,0,0,0,2.043-11.575A31.627,31.627,0,0,0,1462.543-227.417Zm-18.894,16.679a11.443,11.443,0,0,1-2.5,3.676,9.75,9.75,0,0,1-3.517,2.194,12.176,12.176,0,0,1-4.143.713,11.838,11.838,0,0,1-4.028-.713,9.749,9.749,0,0,1-3.517-2.194,11.411,11.411,0,0,1-2.5-3.676,12.733,12.733,0,0,1-.966-5.157,12.74,12.74,0,0,1,.966-5.157,10.768,10.768,0,0,1,2.5-3.62,9.486,9.486,0,0,1,3.517-2.085,12.682,12.682,0,0,1,4.028-.659,12.71,12.71,0,0,1,4.2.713,9.7,9.7,0,0,1,3.575,2.194,10.8,10.8,0,0,1,2.44,3.676,13.143,13.143,0,0,1,.908,5.048A12.429,12.429,0,0,1,1443.649-210.738Z" transform="translate(-1155.928 250.996)"/><path class="c" d="M722.648-213.89l-10.1,21.252-2.263,4.764L698.1-213.89h-20.67l28.36,54.873c-.042-.08-.075-.166-.113-.248.045.1.085.2.136.291l.038.071a5.112,5.112,0,0,0,4.51,2.614,5.112,5.112,0,0,0,4.642-3.081l.538-.957,27.774-53.563Z" transform="translate(-547.645 225.384)"/><path class="c" d="M1087.194-230.3a2.6,2.6,0,0,1,.181.315l-24.194-52.243h0a2.573,2.573,0,0,0-2.4-1.659,2.573,2.573,0,0,0-2.4,1.658l-24.162,52.165.009.015a2.549,2.549,0,0,0-.3,1.185,2.578,2.578,0,0,0,2.578,2.578h12.8a2.577,2.577,0,0,0,2.359-1.543l9.158-20.707,9.082,20.722.017.011a2.574,2.574,0,0,0,2.34,1.516h12.791a2.578,2.578,0,0,0,2.578-2.578A2.565,2.565,0,0,0,1087.194-230.3Z" transform="translate(-845.599 283.89)"/><path class="c" d="M375.99-227.912a24.666,24.666,0,0,0-5.4-8.29,25.661,25.661,0,0,0-8.576-5.656,29.371,29.371,0,0,0-11.3-2.085,32.206,32.206,0,0,0-11.925,2.194,30.079,30.079,0,0,0-9.654,6.042,27.733,27.733,0,0,0-6.417,9.117,27.922,27.922,0,0,0-2.328,11.42,27.922,27.922,0,0,0,2.328,11.42,26.6,26.6,0,0,0,6.589,9.117,31.372,31.372,0,0,0,10.107,6.042,36.379,36.379,0,0,0,12.88,2.265,37.356,37.356,0,0,0,20.586-6.051,2.568,2.568,0,0,0,1.243-2.2,2.561,2.561,0,0,0-.7-1.751,2.613,2.613,0,0,1,.207.251l-4.49-8.187-.01,0a2.57,2.57,0,0,0-2.3-1.439,2.567,2.567,0,0,0-.993.2l-.041.02a31.38,31.38,0,0,1-5.089,2.06,26.59,26.59,0,0,1-7.723,1.1,18.262,18.262,0,0,1-7.892-1.54,10.054,10.054,0,0,1-4.827-4.724h34.342a2.578,2.578,0,0,0,2.578-2.578,2.581,2.581,0,0,1-.047.463c.143-.7.27-1.434.378-2.22a36.52,36.52,0,0,0,.341-5A26.862,26.862,0,0,0,375.99-227.912Zm-36.4,7.032a12.109,12.109,0,0,1,3.974-6.1,10.007,10.007,0,0,1,6.361-2.144,10.014,10.014,0,0,1,6.473,2.2,8,8,0,0,1,2.953,6.042Z" transform="translate(-249.233 250.502)"/><path class="c" d="M1220.879,136.646h-17.967c-.428,0-.775.473-.775,1.057v76.375c0,.584.347,1.057.775,1.057h17.967c.428,0,.775-.473.775-1.057V137.7C1221.655,137.119,1221.307,136.646,1220.879,136.646Z" transform="translate(-986.19 -67.593)"/><path class="c" d="M830.543,192.583a27.478,27.478,0,0,0-5.618-9.052,25.26,25.26,0,0,0-8.622-5.924,27.769,27.769,0,0,0-10.951-2.141,23.362,23.362,0,0,0-9.532,1.81,17.339,17.339,0,0,0-5.289,3.6c-.01.01-.059.049-.071.06a.8.8,0,0,1-1.334-.6v-2.88q0-.328,0-.655v-.391a.837.837,0,0,0-.186-.567.789.789,0,0,0-.589-.273H774a.775.775,0,0,0-.775.775h0v70.522a.775.775,0,0,0,.775.775h16.03l.025,0,.024,0a.775.775,0,0,0,.751-.773s0-17.25,0-17.258a.775.775,0,0,1,.775-.775.787.787,0,0,1,.492.178q5.032,3.945,13.257,3.944a27.809,27.809,0,0,0,10.951-2.138,24.92,24.92,0,0,0,8.622-5.98,27.951,27.951,0,0,0,5.618-9.164,32.041,32.041,0,0,0,2.043-11.575A31.625,31.625,0,0,0,830.543,192.583Zm-18.894,16.679a11.441,11.441,0,0,1-2.5,3.676,9.751,9.751,0,0,1-3.517,2.194,12.177,12.177,0,0,1-4.143.713,11.838,11.838,0,0,1-4.028-.713,9.751,9.751,0,0,1-3.517-2.194,11.409,11.409,0,0,1-2.5-3.676,14.251,14.251,0,0,1,0-10.315,10.766,10.766,0,0,1,2.5-3.62,9.487,9.487,0,0,1,3.517-2.085,12.681,12.681,0,0,1,8.227.054,9.7,9.7,0,0,1,3.575,2.194,10.8,10.8,0,0,1,2.44,3.676,13.143,13.143,0,0,1,.908,5.048A12.427,12.427,0,0,1,811.649,209.262Z" transform="translate(-627.704 -100.038)"/><path class="c" d="M90.648,176.11l-10.1,21.252-2.263,4.764L66.1,176.11H45.434l28.36,54.873c-.042-.08-.075-.166-.113-.248.045.1.085.2.136.291l.038.071a5.112,5.112,0,0,0,9.152-.467l.538-.957,27.774-53.563Z" transform="translate(-19.421 -100.577)"/><path class="c" d="M445.194,229.7a2.587,2.587,0,0,1,.181.315l-24.194-52.243h0a2.568,2.568,0,0,0-4.8,0l-24.162,52.165.009.015a2.55,2.55,0,0,0-.3,1.185,2.578,2.578,0,0,0,2.578,2.578h12.8a2.577,2.577,0,0,0,2.358-1.543l9.158-20.707,9.082,20.722.017.011a2.574,2.574,0,0,0,2.34,1.516h12.791a2.578,2.578,0,0,0,2.14-4.015Z" transform="translate(-309.017 -100.577)"/><path class="c" d="M1455.8,274.819a26.231,26.231,0,0,0-6.853-9.025,30.577,30.577,0,0,0-10.324-5.667,40.678,40.678,0,0,0-12.8-1.94h-18.223a2.578,2.578,0,0,0-2.578,2.578V313.2a2.578,2.578,0,0,0,2.578,2.578h18.22a38.425,38.425,0,0,0,12.807-2.159,31.573,31.573,0,0,0,10.324-5.888,27.071,27.071,0,0,0,6.853-9.111,29.795,29.795,0,0,0,0-23.8ZM1441.1,293.3a14.279,14.279,0,0,1-3.518,4.842,15.31,15.31,0,0,1-5.275,3.007,20.217,20.217,0,0,1-6.583,1.046h-5.14v-30.43h5.14a22.964,22.964,0,0,1,6.583.915,14.9,14.9,0,0,1,5.275,2.745,13.09,13.09,0,0,1,3.518,4.666,15.835,15.835,0,0,1,1.308,6.672A15.662,15.662,0,0,1,1441.1,293.3Z" transform="translate(-1155.756 -169.176)"/><path class="c" d="M1834.99,174.088a24.662,24.662,0,0,0-5.4-8.29,25.66,25.66,0,0,0-8.576-5.656,29.372,29.372,0,0,0-11.3-2.085,32.206,32.206,0,0,0-11.925,2.194,30.08,30.08,0,0,0-9.654,6.042,28.714,28.714,0,0,0-6.417,31.958,26.6,26.6,0,0,0,6.589,9.117,31.374,31.374,0,0,0,10.107,6.042,36.38,36.38,0,0,0,12.88,2.265,37.356,37.356,0,0,0,20.587-6.051,2.557,2.557,0,0,0,.547-3.947,2.621,2.621,0,0,1,.207.251l-4.49-8.187-.01,0a2.563,2.563,0,0,0-3.294-1.24l-.042.02a31.379,31.379,0,0,1-5.089,2.06,26.589,26.589,0,0,1-7.723,1.1,18.262,18.262,0,0,1-7.892-1.54,10.055,10.055,0,0,1-4.827-4.724h34.342a2.578,2.578,0,0,0,2.578-2.578,2.564,2.564,0,0,1-.047.463c.143-.7.27-1.434.378-2.22a36.511,36.511,0,0,0,.341-5A26.861,26.861,0,0,0,1834.99,174.088Zm-36.4,7.032a12.107,12.107,0,0,1,3.974-6.1,10.569,10.569,0,0,1,12.834.054,8,8,0,0,1,2.953,6.042Z" transform="translate(-1468.66 -85.488)"/><path class="c" d="M-62.2,612.819a26.232,26.232,0,0,0-6.853-9.025,30.577,30.577,0,0,0-10.324-5.667,40.679,40.679,0,0,0-12.8-1.94h-18.223a2.578,2.578,0,0,0-2.578,2.578V651.2a2.578,2.578,0,0,0,2.578,2.578h18.22a38.425,38.425,0,0,0,12.807-2.159,31.575,31.575,0,0,0,10.324-5.888,27.072,27.072,0,0,0,6.853-9.111,27.717,27.717,0,0,0,2.48-11.856A27.953,27.953,0,0,0-62.2,612.819ZM-76.9,631.3a14.28,14.28,0,0,1-3.518,4.842,15.309,15.309,0,0,1-5.275,3.007,20.22,20.22,0,0,1-6.583,1.046h-5.14v-30.43h5.14a22.967,22.967,0,0,1,6.583.915,14.9,14.9,0,0,1,5.275,2.745,13.09,13.09,0,0,1,3.518,4.666,15.835,15.835,0,0,1,1.308,6.672A15.663,15.663,0,0,1-76.9,631.3Z" transform="translate(112.984 -451.676)"/><path class="c" d="M1852.879,571.646h-17.967a.914.914,0,0,0-.775,1.007v72.735a.914.914,0,0,0,.775,1.007h17.967a.914.914,0,0,0,.775-1.007V572.653A.914.914,0,0,0,1852.879,571.646Z" transform="translate(-1514.413 -431.164)"/><path class="c" d="M1462.543,692.583a27.477,27.477,0,0,0-5.618-9.052,25.26,25.26,0,0,0-8.622-5.924,27.771,27.771,0,0,0-10.951-2.141,23.361,23.361,0,0,0-9.532,1.81,17.338,17.338,0,0,0-5.289,3.6c-.01.01-.059.049-.071.06a.8.8,0,0,1-1.334-.6v-2.88q0-.328,0-.655v-.391a.837.837,0,0,0-.186-.567.789.789,0,0,0-.589-.273H1406a.775.775,0,0,0-.775.775h0v70.522a.775.775,0,0,0,.775.775h16.03l.025,0,.024,0a.775.775,0,0,0,.751-.773s0-17.25,0-17.258a.775.775,0,0,1,.775-.775.787.787,0,0,1,.492.178q5.032,3.944,13.257,3.944a27.808,27.808,0,0,0,10.951-2.138,24.917,24.917,0,0,0,8.622-5.98,27.949,27.949,0,0,0,5.618-9.164,32.043,32.043,0,0,0,2.043-11.575A31.626,31.626,0,0,0,1462.543,692.583Zm-18.894,16.679a11.443,11.443,0,0,1-2.5,3.676,9.748,9.748,0,0,1-3.517,2.194,12.175,12.175,0,0,1-4.143.713,11.837,11.837,0,0,1-4.028-.713,9.748,9.748,0,0,1-3.517-2.194,11.411,11.411,0,0,1-2.5-3.676,14.253,14.253,0,0,1,0-10.315,10.768,10.768,0,0,1,2.5-3.62,9.486,9.486,0,0,1,3.517-2.085,12.682,12.682,0,0,1,8.227.054,9.7,9.7,0,0,1,3.575,2.194,10.8,10.8,0,0,1,2.44,3.676,13.143,13.143,0,0,1,.908,5.048A12.429,12.429,0,0,1,1443.649,709.262Z" transform="translate(-1155.928 -517.937)"/><path class="c" d="M722.648,676.11l-10.1,21.252-2.263,4.764L698.1,676.11h-20.67l28.36,54.873c-.042-.08-.075-.166-.113-.248.045.1.085.2.136.291l.038.071a5.112,5.112,0,0,0,9.152-.467l.538-.957,27.774-53.563Z" transform="translate(-547.645 -518.475)"/><path class="c" d="M1077.195,729.7a2.624,2.624,0,0,1,.181.315l-24.194-52.243h0a2.568,2.568,0,0,0-4.8,0l-24.162,52.165.009.015a2.549,2.549,0,0,0-.3,1.185,2.578,2.578,0,0,0,2.578,2.578h12.8a2.576,2.576,0,0,0,2.358-1.543l0,.017,9.162-20.724,9.082,20.722.017.011a2.575,2.575,0,0,0,2.34,1.516h12.791a2.578,2.578,0,0,0,2.141-4.015Z" transform="translate(-837.241 -518.475)"/><path class="c" d="M329.473,614.97a25.771,25.771,0,0,0-5.636-8.661,26.807,26.807,0,0,0-8.959-5.908,30.681,30.681,0,0,0-11.8-2.178,33.643,33.643,0,0,0-12.458,2.292,31.42,31.42,0,0,0-10.085,6.312,30,30,0,0,0-6.7,33.385,27.786,27.786,0,0,0,6.883,9.524,32.777,32.777,0,0,0,10.559,6.312,38.008,38.008,0,0,0,13.455,2.366,39.024,39.024,0,0,0,21.506-6.322,2.671,2.671,0,0,0,.571-4.123,2.717,2.717,0,0,1,.216.262l-4.691-8.552-.01,0a2.678,2.678,0,0,0-3.442-1.3l-.043.021a32.792,32.792,0,0,1-5.317,2.152,27.777,27.777,0,0,1-8.068,1.148A19.078,19.078,0,0,1,297.2,640.1a10.5,10.5,0,0,1-5.043-4.935H328.02l.014,0a2.693,2.693,0,0,0,2.693-2.693,2.7,2.7,0,0,1-.049.484q.224-1.09.394-2.319a38.144,38.144,0,0,0,.356-5.225A28.065,28.065,0,0,0,329.473,614.97Zm-38.026,7.346a12.65,12.65,0,0,1,4.152-6.369,11.041,11.041,0,0,1,13.407.057,8.355,8.355,0,0,1,3.084,6.312Z" transform="translate(-208.279 -453.377)"/></g><g transform="translate(738.701)"><path class="c" d="M-3.2-227.181a26.232,26.232,0,0,0-6.853-9.025,30.578,30.578,0,0,0-10.324-5.667,40.678,40.678,0,0,0-12.8-1.94H-51.406a2.578,2.578,0,0,0-2.578,2.578V-188.8a2.578,2.578,0,0,0,2.578,2.578h18.22a38.425,38.425,0,0,0,12.807-2.159,31.574,31.574,0,0,0,10.324-5.888A27.073,27.073,0,0,0-3.2-203.378a27.717,27.717,0,0,0,2.48-11.856A27.954,27.954,0,0,0-3.2-227.181ZM-17.9-208.7a14.278,14.278,0,0,1-3.518,4.842,15.309,15.309,0,0,1-5.275,3.007,20.218,20.218,0,0,1-6.583,1.046h-5.14v-30.43h5.14a22.966,22.966,0,0,1,6.583.915,14.9,14.9,0,0,1,5.275,2.745,13.09,13.09,0,0,1,3.518,4.666,15.835,15.835,0,0,1,1.308,6.672A15.663,15.663,0,0,1-17.9-208.7Z" transform="translate(63.672 250.394)"/><rect class="c" width="19.518" height="57.578" rx="4.722" transform="translate(318.082 9.869)"/><path class="c" d="M1462.543-227.417a27.476,27.476,0,0,0-5.618-9.052,25.259,25.259,0,0,0-8.622-5.924,27.769,27.769,0,0,0-10.951-2.141,23.361,23.361,0,0,0-9.532,1.81,17.338,17.338,0,0,0-5.289,3.6c-.01.01-.059.049-.071.06a.8.8,0,0,1-.531.2.8.8,0,0,1-.8-.8v-2.88q0-.328,0-.655v-.391a.837.837,0,0,0-.186-.567.79.79,0,0,0-.589-.273H1406a.775.775,0,0,0-.775.775h0v70.522a.775.775,0,0,0,.775.775h16.03l.025,0,.024,0a.775.775,0,0,0,.751-.773s0-17.25,0-17.258a.775.775,0,0,1,.775-.775.787.787,0,0,1,.492.178q5.032,3.945,13.257,3.944a27.809,27.809,0,0,0,10.951-2.138,24.919,24.919,0,0,0,8.622-5.98,27.949,27.949,0,0,0,5.618-9.164,32.042,32.042,0,0,0,2.043-11.575A31.627,31.627,0,0,0,1462.543-227.417Zm-18.894,16.679a11.443,11.443,0,0,1-2.5,3.676,9.75,9.75,0,0,1-3.517,2.194,12.176,12.176,0,0,1-4.143.713,11.838,11.838,0,0,1-4.028-.713,9.749,9.749,0,0,1-3.517-2.194,11.411,11.411,0,0,1-2.5-3.676,12.733,12.733,0,0,1-.966-5.157,12.74,12.74,0,0,1,.966-5.157,10.768,10.768,0,0,1,2.5-3.62,9.486,9.486,0,0,1,3.517-2.085,12.682,12.682,0,0,1,4.028-.659,12.71,12.71,0,0,1,4.2.713,9.7,9.7,0,0,1,3.575,2.194,10.8,10.8,0,0,1,2.44,3.676,13.143,13.143,0,0,1,.908,5.048A12.429,12.429,0,0,1,1443.649-210.738Z" transform="translate(-1155.928 250.996)"/><path class="c" d="M722.648-213.89l-10.1,21.252-2.263,4.764L698.1-213.89h-20.67l28.36,54.873c-.042-.08-.075-.166-.113-.248.045.1.085.2.136.291l.038.071a5.112,5.112,0,0,0,4.51,2.614,5.112,5.112,0,0,0,4.642-3.081l.538-.957,27.774-53.563Z" transform="translate(-547.645 225.384)"/><path class="c" d="M1087.194-230.3a2.6,2.6,0,0,1,.181.315l-24.194-52.243h0a2.573,2.573,0,0,0-2.4-1.659,2.573,2.573,0,0,0-2.4,1.658l-24.162,52.165.009.015a2.549,2.549,0,0,0-.3,1.185,2.578,2.578,0,0,0,2.578,2.578h12.8a2.577,2.577,0,0,0,2.359-1.543l9.158-20.707,9.082,20.722.017.011a2.574,2.574,0,0,0,2.34,1.516h12.791a2.578,2.578,0,0,0,2.578-2.578A2.565,2.565,0,0,0,1087.194-230.3Z" transform="translate(-845.599 283.89)"/><path class="c" d="M375.99-227.912a24.666,24.666,0,0,0-5.4-8.29,25.661,25.661,0,0,0-8.576-5.656,29.371,29.371,0,0,0-11.3-2.085,32.206,32.206,0,0,0-11.925,2.194,30.079,30.079,0,0,0-9.654,6.042,27.733,27.733,0,0,0-6.417,9.117,27.922,27.922,0,0,0-2.328,11.42,27.922,27.922,0,0,0,2.328,11.42,26.6,26.6,0,0,0,6.589,9.117,31.372,31.372,0,0,0,10.107,6.042,36.379,36.379,0,0,0,12.88,2.265,37.356,37.356,0,0,0,20.586-6.051,2.568,2.568,0,0,0,1.243-2.2,2.561,2.561,0,0,0-.7-1.751,2.613,2.613,0,0,1,.207.251l-4.49-8.187-.01,0a2.57,2.57,0,0,0-2.3-1.439,2.567,2.567,0,0,0-.993.2l-.041.02a31.38,31.38,0,0,1-5.089,2.06,26.59,26.59,0,0,1-7.723,1.1,18.262,18.262,0,0,1-7.892-1.54,10.054,10.054,0,0,1-4.827-4.724h34.342a2.578,2.578,0,0,0,2.578-2.578,2.581,2.581,0,0,1-.047.463c.143-.7.27-1.434.378-2.22a36.52,36.52,0,0,0,.341-5A26.862,26.862,0,0,0,375.99-227.912Zm-36.4,7.032a12.109,12.109,0,0,1,3.974-6.1,10.007,10.007,0,0,1,6.361-2.144,10.014,10.014,0,0,1,6.473,2.2,8,8,0,0,1,2.953,6.042Z" transform="translate(-249.233 250.502)"/><path class="c" d="M1220.879,136.646h-17.967c-.428,0-.775.473-.775,1.057v76.375c0,.584.347,1.057.775,1.057h17.967c.428,0,.775-.473.775-1.057V137.7C1221.655,137.119,1221.307,136.646,1220.879,136.646Z" transform="translate(-986.19 -67.593)"/><path class="c" d="M830.543,192.583a27.478,27.478,0,0,0-5.618-9.052,25.26,25.26,0,0,0-8.622-5.924,27.769,27.769,0,0,0-10.951-2.141,23.362,23.362,0,0,0-9.532,1.81,17.339,17.339,0,0,0-5.289,3.6c-.01.01-.059.049-.071.06a.8.8,0,0,1-1.334-.6v-2.88q0-.328,0-.655v-.391a.837.837,0,0,0-.186-.567.789.789,0,0,0-.589-.273H774a.775.775,0,0,0-.775.775h0v70.522a.775.775,0,0,0,.775.775h16.03l.025,0,.024,0a.775.775,0,0,0,.751-.773s0-17.25,0-17.258a.775.775,0,0,1,.775-.775.787.787,0,0,1,.492.178q5.032,3.945,13.257,3.944a27.809,27.809,0,0,0,10.951-2.138,24.92,24.92,0,0,0,8.622-5.98,27.951,27.951,0,0,0,5.618-9.164,32.041,32.041,0,0,0,2.043-11.575A31.625,31.625,0,0,0,830.543,192.583Zm-18.894,16.679a11.441,11.441,0,0,1-2.5,3.676,9.751,9.751,0,0,1-3.517,2.194,12.177,12.177,0,0,1-4.143.713,11.838,11.838,0,0,1-4.028-.713,9.751,9.751,0,0,1-3.517-2.194,11.409,11.409,0,0,1-2.5-3.676,14.251,14.251,0,0,1,0-10.315,10.766,10.766,0,0,1,2.5-3.62,9.487,9.487,0,0,1,3.517-2.085,12.681,12.681,0,0,1,8.227.054,9.7,9.7,0,0,1,3.575,2.194,10.8,10.8,0,0,1,2.44,3.676,13.143,13.143,0,0,1,.908,5.048A12.427,12.427,0,0,1,811.649,209.262Z" transform="translate(-627.704 -100.038)"/><path class="c" d="M90.648,176.11l-10.1,21.252-2.263,4.764L66.1,176.11H45.434l28.36,54.873c-.042-.08-.075-.166-.113-.248.045.1.085.2.136.291l.038.071a5.112,5.112,0,0,0,9.152-.467l.538-.957,27.774-53.563Z" transform="translate(-19.421 -100.577)"/><path class="c" d="M445.194,229.7a2.587,2.587,0,0,1,.181.315l-24.194-52.243h0a2.568,2.568,0,0,0-4.8,0l-24.162,52.165.009.015a2.55,2.55,0,0,0-.3,1.185,2.578,2.578,0,0,0,2.578,2.578h12.8a2.577,2.577,0,0,0,2.358-1.543l9.158-20.707,9.082,20.722.017.011a2.574,2.574,0,0,0,2.34,1.516h12.791a2.578,2.578,0,0,0,2.14-4.015Z" transform="translate(-309.017 -100.577)"/><path class="c" d="M1455.8,274.819a26.231,26.231,0,0,0-6.853-9.025,30.577,30.577,0,0,0-10.324-5.667,40.678,40.678,0,0,0-12.8-1.94h-18.223a2.578,2.578,0,0,0-2.578,2.578V313.2a2.578,2.578,0,0,0,2.578,2.578h18.22a38.425,38.425,0,0,0,12.807-2.159,31.573,31.573,0,0,0,10.324-5.888,27.071,27.071,0,0,0,6.853-9.111,29.795,29.795,0,0,0,0-23.8ZM1441.1,293.3a14.279,14.279,0,0,1-3.518,4.842,15.31,15.31,0,0,1-5.275,3.007,20.217,20.217,0,0,1-6.583,1.046h-5.14v-30.43h5.14a22.964,22.964,0,0,1,6.583.915,14.9,14.9,0,0,1,5.275,2.745,13.09,13.09,0,0,1,3.518,4.666,15.835,15.835,0,0,1,1.308,6.672A15.662,15.662,0,0,1,1441.1,293.3Z" transform="translate(-1155.756 -169.176)"/><path class="c" d="M1834.99,174.088a24.662,24.662,0,0,0-5.4-8.29,25.66,25.66,0,0,0-8.576-5.656,29.372,29.372,0,0,0-11.3-2.085,32.206,32.206,0,0,0-11.925,2.194,30.08,30.08,0,0,0-9.654,6.042,28.714,28.714,0,0,0-6.417,31.958,26.6,26.6,0,0,0,6.589,9.117,31.374,31.374,0,0,0,10.107,6.042,36.38,36.38,0,0,0,12.88,2.265,37.356,37.356,0,0,0,20.587-6.051,2.557,2.557,0,0,0,.547-3.947,2.621,2.621,0,0,1,.207.251l-4.49-8.187-.01,0a2.563,2.563,0,0,0-3.294-1.24l-.042.02a31.379,31.379,0,0,1-5.089,2.06,26.589,26.589,0,0,1-7.723,1.1,18.262,18.262,0,0,1-7.892-1.54,10.055,10.055,0,0,1-4.827-4.724h34.342a2.578,2.578,0,0,0,2.578-2.578,2.564,2.564,0,0,1-.047.463c.143-.7.27-1.434.378-2.22a36.511,36.511,0,0,0,.341-5A26.861,26.861,0,0,0,1834.99,174.088Zm-36.4,7.032a12.107,12.107,0,0,1,3.974-6.1,10.569,10.569,0,0,1,12.834.054,8,8,0,0,1,2.953,6.042Z" transform="translate(-1468.66 -85.488)"/><path class="c" d="M-62.2,612.819a26.232,26.232,0,0,0-6.853-9.025,30.577,30.577,0,0,0-10.324-5.667,40.679,40.679,0,0,0-12.8-1.94h-18.223a2.578,2.578,0,0,0-2.578,2.578V651.2a2.578,2.578,0,0,0,2.578,2.578h18.22a38.425,38.425,0,0,0,12.807-2.159,31.575,31.575,0,0,0,10.324-5.888,27.072,27.072,0,0,0,6.853-9.111,27.717,27.717,0,0,0,2.48-11.856A27.953,27.953,0,0,0-62.2,612.819ZM-76.9,631.3a14.28,14.28,0,0,1-3.518,4.842,15.309,15.309,0,0,1-5.275,3.007,20.22,20.22,0,0,1-6.583,1.046h-5.14v-30.43h5.14a22.967,22.967,0,0,1,6.583.915,14.9,14.9,0,0,1,5.275,2.745,13.09,13.09,0,0,1,3.518,4.666,15.835,15.835,0,0,1,1.308,6.672A15.663,15.663,0,0,1-76.9,631.3Z" transform="translate(112.984 -451.676)"/><path class="c" d="M1852.879,571.646h-17.967a.914.914,0,0,0-.775,1.007v72.735a.914.914,0,0,0,.775,1.007h17.967a.914.914,0,0,0,.775-1.007V572.653A.914.914,0,0,0,1852.879,571.646Z" transform="translate(-1514.413 -431.164)"/><path class="c" d="M1462.543,692.583a27.477,27.477,0,0,0-5.618-9.052,25.26,25.26,0,0,0-8.622-5.924,27.771,27.771,0,0,0-10.951-2.141,23.361,23.361,0,0,0-9.532,1.81,17.338,17.338,0,0,0-5.289,3.6c-.01.01-.059.049-.071.06a.8.8,0,0,1-1.334-.6v-2.88q0-.328,0-.655v-.391a.837.837,0,0,0-.186-.567.789.789,0,0,0-.589-.273H1406a.775.775,0,0,0-.775.775h0v70.522a.775.775,0,0,0,.775.775h16.03l.025,0,.024,0a.775.775,0,0,0,.751-.773s0-17.25,0-17.258a.775.775,0,0,1,.775-.775.787.787,0,0,1,.492.178q5.032,3.944,13.257,3.944a27.808,27.808,0,0,0,10.951-2.138,24.917,24.917,0,0,0,8.622-5.98,27.949,27.949,0,0,0,5.618-9.164,32.043,32.043,0,0,0,2.043-11.575A31.626,31.626,0,0,0,1462.543,692.583Zm-18.894,16.679a11.443,11.443,0,0,1-2.5,3.676,9.748,9.748,0,0,1-3.517,2.194,12.175,12.175,0,0,1-4.143.713,11.837,11.837,0,0,1-4.028-.713,9.748,9.748,0,0,1-3.517-2.194,11.411,11.411,0,0,1-2.5-3.676,14.253,14.253,0,0,1,0-10.315,10.768,10.768,0,0,1,2.5-3.62,9.486,9.486,0,0,1,3.517-2.085,12.682,12.682,0,0,1,8.227.054,9.7,9.7,0,0,1,3.575,2.194,10.8,10.8,0,0,1,2.44,3.676,13.143,13.143,0,0,1,.908,5.048A12.429,12.429,0,0,1,1443.649,709.262Z" transform="translate(-1155.928 -517.937)"/><path class="c" d="M722.648,676.11l-10.1,21.252-2.263,4.764L698.1,676.11h-20.67l28.36,54.873c-.042-.08-.075-.166-.113-.248.045.1.085.2.136.291l.038.071a5.112,5.112,0,0,0,9.152-.467l.538-.957,27.774-53.563Z" transform="translate(-547.645 -518.475)"/><path class="c" d="M1077.195,729.7a2.624,2.624,0,0,1,.181.315l-24.194-52.243h0a2.568,2.568,0,0,0-4.8,0l-24.162,52.165.009.015a2.549,2.549,0,0,0-.3,1.185,2.578,2.578,0,0,0,2.578,2.578h12.8a2.576,2.576,0,0,0,2.358-1.543l0,.017,9.162-20.724,9.082,20.722.017.011a2.575,2.575,0,0,0,2.34,1.516h12.791a2.578,2.578,0,0,0,2.141-4.015Z" transform="translate(-837.241 -518.475)"/><path class="c" d="M329.473,614.97a25.771,25.771,0,0,0-5.636-8.661,26.807,26.807,0,0,0-8.959-5.908,30.681,30.681,0,0,0-11.8-2.178,33.643,33.643,0,0,0-12.458,2.292,31.42,31.42,0,0,0-10.085,6.312,30,30,0,0,0-6.7,33.385,27.786,27.786,0,0,0,6.883,9.524,32.777,32.777,0,0,0,10.559,6.312,38.008,38.008,0,0,0,13.455,2.366,39.024,39.024,0,0,0,21.506-6.322,2.671,2.671,0,0,0,.571-4.123,2.717,2.717,0,0,1,.216.262l-4.691-8.552-.01,0a2.678,2.678,0,0,0-3.442-1.3l-.043.021a32.792,32.792,0,0,1-5.317,2.152,27.777,27.777,0,0,1-8.068,1.148A19.078,19.078,0,0,1,297.2,640.1a10.5,10.5,0,0,1-5.043-4.935H328.02l.014,0a2.693,2.693,0,0,0,2.693-2.693,2.7,2.7,0,0,1-.049.484q.224-1.09.394-2.319a38.144,38.144,0,0,0,.356-5.225A28.065,28.065,0,0,0,329.473,614.97Zm-38.026,7.346a12.65,12.65,0,0,1,4.152-6.369,11.041,11.041,0,0,1,13.407.057,8.355,8.355,0,0,1,3.084,6.312Z" transform="translate(-208.279 -453.377)"/></g></g></g></g></svg>
