<svg xmlns="http://www.w3.org/2000/svg" width="81.308" height="46" viewBox="0 0 81.308 46"><defs><style>.logo{fill:#ffffff;}</style></defs><g transform="translate(0 0.025)"><path class="logo" d="M12.532,273a6.526,6.526,0,0,0-1.688-2.223A7.476,7.476,0,0,0,8.3,269.378a10.073,10.073,0,0,0-3.157-.482H.64a.642.642,0,0,0-.64.64v12.931a.642.642,0,0,0,.64.64h4.5a9.505,9.505,0,0,0,3.157-.535,7.634,7.634,0,0,0,2.548-1.458,6.705,6.705,0,0,0,1.688-2.244A7.421,7.421,0,0,0,12.532,273ZM8.9,277.559a3.477,3.477,0,0,1-.87,1.2,3.659,3.659,0,0,1-1.3.745,5.025,5.025,0,0,1-1.626.262H3.838v-7.509H5.107a5.69,5.69,0,0,1,1.626.231,3.6,3.6,0,0,1,1.3.682,3.358,3.358,0,0,1,.87,1.154,3.851,3.851,0,0,1,.325,1.647A4.014,4.014,0,0,1,8.9,277.559Z" transform="translate(0 -240.718)"/><path class="logo" d="M729.589,268.9h4.436a.188.188,0,0,1,.189.189v13.822a.188.188,0,0,1-.189.189h-4.436a.188.188,0,0,1-.189-.189V269.089A.188.188,0,0,1,729.589,268.9Z" transform="translate(-652.905 -240.722)"/><path class="logo" d="M577.747,272.912a6.944,6.944,0,0,0-1.384-2.234,6.075,6.075,0,0,0-2.129-1.458,6.835,6.835,0,0,0-2.706-.524,5.659,5.659,0,0,0-2.349.451,4.384,4.384,0,0,0-1.3.881l-.021.01a.2.2,0,0,1-.336-.147h0v-.965a.194.194,0,0,0-.042-.136.176.176,0,0,0-.147-.063h-3.545a.188.188,0,0,0-.189.189h0v17.409a.188.188,0,0,0,.189.189h3.964a.188.188,0,0,0,.189-.189v-4.279a.188.188,0,0,1,.189-.189h0a.3.3,0,0,1,.126.042,5.149,5.149,0,0,0,3.272.975,6.871,6.871,0,0,0,2.706-.524,6.134,6.134,0,0,0,2.129-1.479,6.732,6.732,0,0,0,1.384-2.265,7.793,7.793,0,0,0,.5-2.852A7.7,7.7,0,0,0,577.747,272.912Zm-4.656,4.111a2.991,2.991,0,0,1-.619.912,2.443,2.443,0,0,1-.871.545,3.051,3.051,0,0,1-1.017.178,2.976,2.976,0,0,1-1-.178,2.441,2.441,0,0,1-.87-.545,2.866,2.866,0,0,1-.619-.912,3.56,3.56,0,0,1,0-2.549,2.487,2.487,0,0,1,.619-.891,2.365,2.365,0,0,1,.87-.514,3.113,3.113,0,0,1,2.024.01,2.485,2.485,0,0,1,.881.545,2.911,2.911,0,0,1,.608.9,3.167,3.167,0,0,1,.22,1.248A3,3,0,0,1,573.091,277.023Z" transform="translate(-504.493 -240.539)"/><path class="logo" d="M293.659,268.9l-2.5,5.244-.556,1.174L287.6,268.9h-5.1l7.006,13.539-.031-.063c.011.021.021.052.031.073l.01.021a1.258,1.258,0,0,0,1.709.493,1.234,1.234,0,0,0,.545-.608l.136-.241,6.848-13.214Z" transform="translate(-252.873 -240.722)"/><path class="logo" d="M429.508,281.982a.261.261,0,0,1,.042.073l-5.967-12.889h0a.63.63,0,0,0-.808-.378.613.613,0,0,0-.378.378l-5.957,12.868h0a.622.622,0,0,0,.556.923h3.157a.62.62,0,0,0,.577-.378h0L423,277.473l2.244,5.118h0a.631.631,0,0,0,.577.378h3.157a.627.627,0,0,0,.629-.64.512.512,0,0,0-.095-.346Z" transform="translate(-372.698 -240.59)"/><path class="logo" d="M158.331,272.75a6.094,6.094,0,0,0-3.45-3.44,7.273,7.273,0,0,0-2.79-.514,7.8,7.8,0,0,0-2.936.545,7.411,7.411,0,0,0-2.381,1.489,7.087,7.087,0,0,0-1.584,7.887,6.674,6.674,0,0,0,1.626,2.255,7.741,7.741,0,0,0,2.5,1.489,8.9,8.9,0,0,0,3.178.556,9.26,9.26,0,0,0,5.076-1.489.632.632,0,0,0,.22-.86.8.8,0,0,0-.084-.115c.021.021.031.042.052.063l-1.112-2.024h0a.627.627,0,0,0-.818-.3h-.011a7.169,7.169,0,0,1-1.258.5,6.513,6.513,0,0,1-1.909.273,4.557,4.557,0,0,1-1.951-.378,2.48,2.48,0,0,1-1.2-1.164h8.474a.642.642,0,0,0,.64-.64h0a.431.431,0,0,1-.01.115c.031-.168.063-.357.094-.545a9.682,9.682,0,0,0,.084-1.237A6.621,6.621,0,0,0,158.331,272.75Zm-8.977,1.741a2.974,2.974,0,0,1,.986-1.5,2.612,2.612,0,0,1,3.167.011,1.932,1.932,0,0,1,.724,1.489Z" transform="translate(-129.449 -240.628)"/><path class="logo" d="M192.672,14.985a8.829,8.829,0,0,0-7.866-6.943,17.134,17.134,0,0,0-5.778-5.558,18.518,18.518,0,0,0-18.615,0,17.133,17.133,0,0,0-5.779,5.558,8.829,8.829,0,0,0-7.866,6.943,4.172,4.172,0,0,0-2.569,3.8,4.438,4.438,0,0,0,8.862,0,4.122,4.122,0,0,0-2.213-3.618,4.983,4.983,0,0,1,4.814-3.366l.881.021a.867.867,0,0,0,.661-.315l.43-.745a13.952,13.952,0,0,1,24.163,0l.388.713h.01a.884.884,0,0,0,.7.346l.87-.021a4.983,4.983,0,0,1,4.814,3.366,4.122,4.122,0,0,0-2.213,3.618,4.433,4.433,0,0,0,8.851.01A4.133,4.133,0,0,0,192.672,14.985Zm-.514,3.8a1.356,1.356,0,1,1-1.353-1.258A1.312,1.312,0,0,1,192.159,18.781Zm-42.159,0a1.377,1.377,0,1,1-1.374-1.279A1.334,1.334,0,0,1,150,18.781Z" transform="translate(-129.077)"/></g></svg>
